<svg
  width="320"
  height="105"
  viewBox="0 0 320 105"
  fill="none"
  xmlns="http://www.w3.org/2000/svg"
  aria-hidden="true"
>
  <path
    fill-rule="evenodd"
    clip-rule="evenodd"
    d="M121.043 105C109.305 98.2928 97.8118 88.5224 90.9562 76.8271C78.928 56.3079 80.5854 41.3411 86.7701 26.1151C93.0196 10.7242 115.863 1.65594 133.425 4.5285C150.986 7.40106 163.279 25.2654 186.963 27.8286C210.647 30.3917 229.9 42.5396 235.426 59.9125C241.227 78.1535 229.869 93.4014 219.656 100.711C217.55 102.217 215.435 103.639 213.278 104.965L121.043 105Z"
    fill="#009EE3"
    fill-opacity="0.1"
  ></path>
  <path
    d="M205.784 45.3126C205.784 45.3126 207.988 44.0652 209.17 43.388C214.728 40.2047 216.268 32.4476 212.611 26.062C208.953 19.6765 201.483 17.0806 195.925 20.2639C194.734 20.9463 192.555 22.2154 192.555 22.2154L205.784 45.3126Z"
    fill="white"
    stroke="#333333"
    stroke-width="1.5"
  ></path>
  <ellipse
    cx="11.5968"
    cy="13.3244"
    rx="11.5968"
    ry="13.3244"
    transform="matrix(-0.867738 0.497022 0.497022 0.867738 202.375 16.5703)"
    fill="white"
    stroke="#333333"
    stroke-width="1.5"
  ></ellipse>
  <path
    d="M193.635 36.9352C195.724 40.5826 199.773 41.7679 202.538 40.1843C205.303 38.6008 206.329 34.5083 204.24 30.8608C202.151 27.2134 198.101 26.0281 195.337 27.6117C192.572 29.1952 191.546 33.2877 193.635 36.9352Z"
    fill="#5AD2FF"
    stroke="white"
    stroke-width="3"
  ></path>
  <ellipse
    cx="7.61076"
    cy="8.74452"
    rx="7.61076"
    ry="8.74452"
    transform="matrix(-0.867738 0.497022 0.497022 0.867738 201.195 22.5273)"
    stroke="#333333"
    stroke-width="1.5"
  ></ellipse>
  <path
    d="M209 28.132L212.613 26.0625"
    stroke="#333333"
    stroke-width="1.5"
  ></path>
  <path
    d="M205.559 23.9094L209.172 21.8398"
    stroke="#333333"
    stroke-width="1.5"
  ></path>
  <path
    d="M199.547 21.1594L203.16 19.0898"
    stroke="#333333"
    stroke-width="1.5"
  ></path>
  <path
    d="M210.867 33.2102L214.48 31.1406"
    stroke="#333333"
    stroke-width="1.5"
  ></path>
  <path
    d="M210.199 39.7883L213.812 37.7188"
    stroke="#333333"
    stroke-width="1.5"
  ></path>
  <path
    d="M199.687 30.2736C199.026 29.7853 198.148 29.7548 197.013 30.4047C195.824 31.0855 195.326 32.2631 195.89 33.2477C196.589 34.468 197.451 34.3027 198.712 33.9673C198.791 33.9467 198.871 33.9261 198.95 33.9059L199.109 33.8662C200.133 33.6133 201.377 33.2241 202.035 34.1478C202.694 35.0714 202.419 36.3874 200.848 37.2827C199.736 37.9157 198.499 37.9293 197.858 37.1992"
    stroke="#333333"
    stroke-width="1.5"
  ></path>
  <path
    d="M196.361 29.1659L197.051 30.3713"
    stroke="#333333"
    stroke-width="1.5"
  ></path>
  <path
    d="M201.009 37.3026L201.7 38.508"
    stroke="#333333"
    stroke-width="1.5"
  ></path>
  <path
    fill-rule="evenodd"
    clip-rule="evenodd"
    d="M126.938 104.737V89.4204C126.938 87.6625 127.238 85.9182 127.827 84.262L129.123 80.6109C130.338 77.1894 130.747 73.5342 130.319 69.9292L129.392 62.1313L122.555 40.9911L130.662 30.2992C132.237 28.5979 133.011 24.665 131.321 23.0779C129.688 21.5474 128.334 22.6959 126.705 24.2295L101.571 48.8483C101.571 48.8483 95.6566 54.4743 97.4079 62.0607L103.798 84.1608C104.076 84.9857 104.146 86.8596 104.146 87.7286L103.422 104.763"
    fill="white"
  ></path>
  <ellipse
    cx="106.633"
    cy="86.5597"
    rx="1.92576"
    ry="1.91905"
    stroke="white"
    stroke-width="0.765696"
  ></ellipse>
  <path
    d="M103.429 78.176L101.566 76.3203"
    stroke="white"
    stroke-width="0.765696"
    stroke-linecap="square"
  ></path>
  <path
    fill-rule="evenodd"
    clip-rule="evenodd"
    d="M129.393 62.1299L127.735 57.0039L110.984 71.04L115.451 84.1594C115.451 84.1594 126.352 81.9119 128.002 70.778L130.18 68.7517L129.393 62.1299Z"
    fill="#EEEEEE"
  ></path>
  <path
    d="M126.941 104.737C126.941 104.737 126.941 88.4838 126.941 86.9451C126.941 85.4063 129.728 79.824 130.144 77.2544C130.559 74.6849 130.409 70.7998 130.409 70.7998C130.385 70.5094 130.356 70.2191 130.322 69.9292L129.395 62.1313L122.558 40.9911L130.182 30.2992C131.757 28.5979 133.014 24.665 131.323 23.0779C129.691 21.5474 128.337 22.6959 126.707 24.2295C107.842 42.2735 101.284 48.5761 100.273 50.2966C99.4434 51.7077 96.6588 55.3183 97.0347 59.8132C97.2545 62.442 99.3414 70.3486 100.418 73.298C101.921 77.4184 103.801 84.1608 103.801 84.1608C104.078 84.9857 104.149 86.8596 104.149 87.7286C104.149 87.926 104.027 90.8063 103.884 94.1424M103.429 104.737C103.429 104.645 103.585 101.061 103.752 97.2052"
    stroke="#333333"
    stroke-width="1.75016"
  ></path>
  <path
    fill-rule="evenodd"
    clip-rule="evenodd"
    d="M136.351 63.9569C136.351 65.9349 135.224 67.5388 133.835 67.5388C132.446 67.5388 131.32 65.9349 131.32 63.9569C131.32 61.9788 132.446 60.375 133.835 60.375C135.224 60.375 136.351 61.9788 136.351 63.9569Z"
    fill="white"
  ></path>
  <path
    fill-rule="evenodd"
    clip-rule="evenodd"
    d="M136.903 66.166C137.041 65.7236 137.12 65.2362 137.12 64.7215C137.12 62.7434 135.993 61.1406 134.603 61.1406C133.213 61.1406 132.086 62.7434 132.086 64.7215C132.086 65.2362 132.165 65.7236 132.303 66.166H136.903Z"
    fill="#EEEEEE"
  ></path>
  <path
    fill-rule="evenodd"
    clip-rule="evenodd"
    d="M109.052 39.8487L107.163 38.1558C106.662 37.7072 106.622 36.9395 107.074 36.4408L124.304 17.3998C124.756 16.901 125.527 16.8601 126.028 17.3087L137.505 27.591C138.005 28.0392 138.045 28.8069 137.594 29.3057L120.363 48.3467C119.912 48.8454 119.14 48.8863 118.64 48.438L110.336 40.9988L109.052 39.8487Z"
    fill="white"
    stroke="#333333"
    stroke-width="1.5"
  ></path>
  <path
    fill-rule="evenodd"
    clip-rule="evenodd"
    d="M113.135 34.279L111.887 31.7325C111.556 31.0579 111.837 30.2445 112.516 29.9155L138.409 17.3549C139.087 17.0259 139.905 17.3058 140.236 17.9805L147.82 33.4464C148.15 34.1207 147.869 34.934 147.191 35.263L121.298 47.8237C120.619 48.1527 119.801 47.8728 119.471 47.1985L113.984 36.0088L113.135 34.279Z"
    fill="white"
    stroke="#333333"
    stroke-width="1.5"
  ></path>
  <path
    d="M127.363 28.3899L140.026 22.2349"
    stroke="#333333"
    stroke-width="1.5"
  ></path>
  <path
    fill-rule="evenodd"
    clip-rule="evenodd"
    d="M121.218 35.258L125.788 33.0368C126.035 32.917 126.137 32.6209 126.018 32.3759L123.793 27.8317C123.674 27.5867 123.376 27.485 123.13 27.6048L118.56 29.826C118.313 29.9458 118.211 30.2418 118.331 30.4869L120.555 35.0311C120.675 35.2761 120.972 35.3778 121.218 35.258Z"
    stroke="#333333"
    stroke-width="1.5"
  ></path>
  <path
    d="M107.758 65.5099V31.3828H147.145C149.804 31.3828 151.95 33.5292 151.95 36.1659V60.7269C151.95 63.3636 149.804 65.5099 147.145 65.5099H107.758Z"
    fill="#5AD2FF"
    stroke="white"
    stroke-width="3"
  ></path>
  <path
    fill-rule="evenodd"
    clip-rule="evenodd"
    d="M107.404 29.8828H147.145C150.627 29.8828 153.45 32.6958 153.45 36.1659V60.7269C153.45 64.1969 150.627 67.0099 147.145 67.0099H107.404C106.771 67.0099 106.258 66.4985 106.258 65.8676V31.0252C106.258 30.3943 106.771 29.8828 107.404 29.8828Z"
    stroke="#333333"
    stroke-width="1.5"
  ></path>
  <path
    fill-rule="evenodd"
    clip-rule="evenodd"
    d="M117.676 48.8152C117.676 44.294 121.341 40.6289 125.862 40.6289H156.189V57.0015H125.862C121.341 57.0015 117.676 53.3364 117.676 48.8152Z"
    fill="white"
    stroke="#333333"
    stroke-width="1.5"
  ></path>
  <path
    fill-rule="evenodd"
    clip-rule="evenodd"
    d="M117.788 47.4609C117.714 47.9023 117.676 48.3557 117.676 48.818C117.676 53.3392 121.341 57.0043 125.862 57.0043H156.189V54.2902H125.862C121.803 54.2902 118.434 51.3363 117.788 47.4609Z"
    fill="#EEEEEE"
  ></path>
  <path
    fill-rule="evenodd"
    clip-rule="evenodd"
    d="M117.676 48.8152C117.676 44.294 121.341 40.6289 125.862 40.6289H156.189V57.0015H125.862C121.341 57.0015 117.676 53.3364 117.676 48.8152V48.8152Z"
    stroke="#333333"
    stroke-width="1.14854"
  ></path>
  <ellipse
    cx="126.615"
    cy="48.8171"
    rx="3.78336"
    ry="3.77018"
    fill="white"
    stroke="#333333"
    stroke-width="1.75016"
  ></ellipse>
  <path
    fill-rule="evenodd"
    clip-rule="evenodd"
    d="M110.016 70.0688L126.796 52.874C128.454 51.1753 129.464 50.4881 131.278 52.0177C133.216 53.6503 132.025 58.7274 130.352 60.6287C130.352 60.6287 126.679 65.8974 124.842 68.5317C124.546 68.9565 124.042 70.9004 124.04 71.4423C124.022 77.0535 120.763 82.2243 115.575 84.6284L115.275 84.7669"
    fill="white"
  ></path>
  <path
    d="M110.016 70.0688L126.796 52.874C128.454 51.1753 129.464 50.4881 131.278 52.0177C133.216 53.6503 132.025 58.7274 130.352 60.6287C130.352 60.6287 126.679 65.8974 124.842 68.5317C124.546 68.9565 124.042 70.9004 124.04 71.4423C124.022 77.0535 120.763 82.2243 115.575 84.6284L115.275 84.7669"
    stroke="#333333"
    stroke-width="1.5"
  ></path>
  <path
    d="M215.894 78.4696V78.1811C215.894 76.6543 215.73 75.2576 215.427 73.981C215.196 73.0071 214.883 72.103 214.501 71.2644C214.191 70.5848 213.835 69.9481 213.439 69.3521L211.611 67.1355C206.271 61.8459 197.186 60.9231 191.76 61.3988L181.652 62.601C178.092 60.0235 173.559 59.7639 171.737 59.9562C170.344 62.6491 170.899 66.8807 171.35 68.6599C168.797 70.6988 167.191 74.5105 166.707 76.1614L164.144 76.9789C162.557 77.2482 162.032 78.4055 161.967 78.9505V84.2881C161.967 85.0959 162.935 85.8108 163.418 86.0673L168.738 87.8465C170.364 91.6165 174.865 94.5786 176.912 95.5885L178.895 104.1H184.844L186.488 98.9064C190.861 99.9066 195.275 99.3232 196.935 98.9064L198.531 104.1H205.302L206.995 95.5885C214.153 92.5109 215.91 82.8936 215.894 78.4696Z"
    fill="white"
  ></path>
  <path
    d="M215.427 72.981C215.73 74.2576 215.894 75.6543 215.894 77.1811V77.4696C215.91 81.8936 214.153 91.5109 206.995 94.5885L205.302 103.1H198.531L196.935 97.9064C195.275 98.3232 190.861 98.9066 186.488 97.9064L184.844 103.1H178.895L176.912 94.5885C174.865 93.5786 170.364 90.6165 168.738 86.8465L163.418 85.0673C162.935 84.8108 161.967 84.0959 161.967 83.2881C161.967 82.4802 161.967 79.3931 161.967 77.9505C162.032 77.4055 162.557 76.2482 164.144 75.9789L166.707 75.1614C167.191 73.5105 168.797 69.6988 171.35 67.6599C170.899 65.8807 170.344 61.6491 171.737 58.9562C173.559 58.7639 178.092 59.0235 181.652 61.601L191.76 60.3988C197.186 59.9231 206.271 60.8459 211.611 66.1355M214.501 70.2644C214.191 69.5848 213.835 68.9481 213.439 68.3521"
    stroke="#333333"
    stroke-width="1.5"
    stroke-linejoin="round"
  ></path>
  <path
    d="M200.025 63.1866C200.025 66.8993 197.062 69.8731 193.452 69.8731C189.841 69.8731 186.879 66.8993 186.879 63.1866C186.879 59.4738 189.841 56.5 193.452 56.5C197.062 56.5 200.025 59.4738 200.025 63.1866Z"
    fill="#5AD2FF"
    stroke="white"
    stroke-width="3"
  ></path>
  <path
    d="M195.079 61.426C194.841 60.8842 194.303 60.5508 193.361 60.5508C192.374 60.5508 191.642 61.1082 191.642 61.9254C191.642 62.9381 192.239 63.1433 193.147 63.385C193.205 63.4007 193.262 63.4163 193.319 63.4321L193.432 63.4639C194.162 63.6726 195.079 63.8747 195.16 64.6874C195.24 65.5002 194.598 66.2243 193.295 66.2213C192.374 66.2191 191.597 65.7849 191.457 65.099"
    stroke="#333333"
    stroke-width="1.5"
  ></path>
  <path d="M193.234 58.7031V60.5473" stroke="#333333" stroke-width="1.5"></path>
  <path
    d="M193.234 66.2188V68.0629"
    stroke="#333333"
    stroke-width="1.07748"
  ></path>
  <ellipse
    cx="193.452"
    cy="63.1866"
    rx="8.07291"
    ry="8.18656"
    stroke="#333333"
    stroke-width="1.5"
  ></ellipse>
  <path
    d="M185.528 70.0187C185.527 68.8466 184.202 67.2885 185.14 66.5643C190.22 65.724 197.254 65.724 201.939 66.5609L203.113 72.8886L187.588 77.2678L185.528 70.0187Z"
    fill="white"
  ></path>
  <path
    d="M202.242 66.2131C202.242 66.2131 198.935 65.7734 193.773 65.7734C188.611 65.7734 185.388 66.2131 185.388 66.2131"
    stroke="#333333"
    stroke-width="1.5"
    stroke-linecap="round"
    stroke-linejoin="round"
  ></path>
  <path
    d="M220.949 56.3164L219.335 57.9305"
    stroke="#333333"
    stroke-width="1.5"
    stroke-linejoin="round"
  ></path>
  <path
    d="M217.934 59.3359L216.319 60.9501"
    stroke="#333333"
    stroke-width="1.5"
    stroke-linejoin="round"
  ></path>
  <path
    d="M220.949 60.9492L219.335 59.3351"
    stroke="#333333"
    stroke-width="1.5"
    stroke-linejoin="round"
  ></path>
  <path
    d="M217.934 57.9297L216.319 56.3155"
    stroke="#333333"
    stroke-width="1.5"
    stroke-linejoin="round"
  ></path>
  <path
    d="M166.074 10V13.537"
    stroke="#333333"
    stroke-width="1.5"
    stroke-linejoin="round"
  ></path>
  <path
    d="M166.074 16.6094V20.1464"
    stroke="#333333"
    stroke-width="1.5"
    stroke-linejoin="round"
  ></path>
  <path
    d="M171.148 15.0703L167.611 15.0703"
    stroke="#333333"
    stroke-width="1.5"
    stroke-linejoin="round"
  ></path>
  <path
    d="M164.539 15.0703L161.002 15.0703"
    stroke="#333333"
    stroke-width="1.5"
    stroke-linejoin="round"
  ></path>
  <path
    d="M215.371 11L215.371 12.6545"
    stroke="#333333"
    stroke-width="1.5"
    stroke-linejoin="round"
  ></path>
  <path
    d="M215.371 14.0898L215.371 15.7443"
    stroke="#333333"
    stroke-width="1.5"
    stroke-linejoin="round"
  ></path>
  <path
    d="M217.746 13.3711L216.092 13.3711"
    stroke="#333333"
    stroke-width="1.5"
    stroke-linejoin="round"
  ></path>
  <path
    d="M214.656 13.3711L213.002 13.3711"
    stroke="#333333"
    stroke-width="1.5"
    stroke-linejoin="round"
  ></path>
  <path
    d="M177.949 36.3164L176.335 37.9305"
    stroke="#333333"
    stroke-width="1.5"
    stroke-linejoin="round"
  ></path>
  <path
    d="M174.934 39.3359L173.319 40.9501"
    stroke="#333333"
    stroke-width="1.5"
    stroke-linejoin="round"
  ></path>
  <path
    d="M177.949 40.9492L176.335 39.3351"
    stroke="#333333"
    stroke-width="1.5"
    stroke-linejoin="round"
  ></path>
  <path
    d="M174.934 37.9297L173.319 36.3155"
    stroke="#333333"
    stroke-width="1.5"
    stroke-linejoin="round"
  ></path>
  <path d="M73 104L247.051 104" stroke="#333333" stroke-width="1.5"></path>
</svg>
