<svg
  width="73"
  height="68"
  viewBox="0 0 73 68"
  fill="none"
  xmlns="http://www.w3.org/2000/svg"
>
  <path
    d="M1.4435 32.8573C1.4435 13.2328 22.3288 10.1576 32.7714 11.0731L45.8919 12.6336C50.5125 9.28798 56.3971 8.95093 58.7618 9.20061C60.5699 12.6961 59.85 18.1889 59.264 20.4984C62.5788 23.145 64.6631 28.0927 65.2909 30.2358L68.6183 31.2969C70.6774 31.6464 71.3596 33.1486 71.4434 33.856V40.7845C71.4434 41.8332 70.1878 42.7611 69.56 43.094L62.6542 45.4035C60.5448 50.2972 54.702 54.1422 52.0443 55.453L49.4704 66.5011H41.7484L39.6139 59.7599C33.9386 61.0582 28.2089 60.3008 26.0534 59.7599L23.9817 66.5011H15.1925L12.9953 55.453C3.70388 51.4582 1.42267 38.9744 1.4435 33.2319V32.8573Z"
    fill="white"
    stroke="black"
    stroke-width="1.5"
    stroke-linejoin="round"
  />
  <path
    d="M36.4224 19.5351C37.7324 18.3033 38.6397 16.7045 39.0253 14.9481C39.411 13.1918 39.2569 11.3599 38.5833 9.69269C37.9098 8.02544 36.7481 6.60062 35.2508 5.60501C33.7534 4.6094 31.9901 4.08946 30.1921 4.11336C28.3941 4.13727 26.6452 4.70389 25.1749 5.73895C23.7045 6.77402 22.5811 8.22922 21.9521 9.91378C21.3231 11.5983 21.2178 13.4337 21.65 15.1791C22.0821 16.9246 23.0316 18.4987 24.3739 19.6952L30.3107 19.5351L36.4224 19.5351Z"
    fill="white"
  />
  <path
    d="M36.5036 19.5459C37.8013 18.3257 38.7081 16.7482 39.1092 15.0127C39.5103 13.2772 39.3878 11.4617 38.7572 9.79584C38.1265 8.12997 37.016 6.68853 35.5661 5.65378C34.1163 4.61903 32.3921 4.03747 30.6117 3.98262C28.8313 3.92777 27.0746 4.4021 25.5638 5.34564C24.0529 6.28918 22.8558 7.65953 22.1238 9.28343C21.3918 10.9073 21.1578 12.7118 21.4513 14.4687C21.7449 16.2256 22.6809 18.1267 23.9011 19.4244"
    stroke="black"
    stroke-width="1.5"
  />
  <path
    d="M19.0059 19.8774C19.0059 19.8774 23.2981 19.3066 29.999 19.3066C36.6998 19.3066 40.8832 19.8774 40.8832 19.8774"
    stroke="black"
    stroke-width="1.5"
    stroke-linecap="round"
    stroke-linejoin="round"
  />
  <path
    d="M32.6147 10.1081C32.3281 9.46686 31.6816 9.07227 30.5498 9.07227C29.3643 9.07227 28.4835 9.73198 28.4835 10.699C28.4835 11.8975 29.202 12.1403 30.2931 12.4263C30.3619 12.4449 30.4306 12.4634 30.4989 12.4821L30.6347 12.5197C31.5129 12.7667 32.6147 13.0059 32.7117 13.9677C32.8087 14.9296 32.0363 15.7865 30.4711 15.7829C29.3643 15.7804 28.4294 15.2665 28.2617 14.4548"
    stroke="black"
    stroke-opacity="0.9"
  />
  <path d="M30.5812 7.8877V9.07148" stroke="black" stroke-opacity="0.9" />
  <path d="M30.5812 15.8643V17.048" stroke="black" stroke-opacity="0.9" />
</svg>