<svg xmlns="http://www.w3.org/2000/svg" fill="none" viewBox="0 0 24 24"><path stroke="#000" stroke-linecap="square" stroke-linejoin="round" stroke-width="1.5" d="M12.737 3.598c1.802 0 2.205.482 2.205.482 1.426-1.033 3.242-1.137 3.972-1.06.558 1.079.336 2.775.155 3.487 1.024.817 1.667 2.345 1.86 3.006l1.028.328c.635.108.846.571.872.79v2.138c0 .324-.388.61-.582.713l-2.131.713c-.651 1.51-2.455 2.697-3.275 3.102l-.795 3.41h-2.383l-.66-2.08c-1.751.4-3.52.167-4.185 0l-.64 2.08H5.465l-.678-3.41C1.904 16.032.994 12.711 1 10.94c.008-2.191.917-3.669 1.417-4.395.5-.727 1.797-2.946 6.13-2.946"/><path fill="#000" d="m10.768 15.558 4.431-4.432-.883-.883-3.505 3.502-3.331-3.332-.93.928 4.218 4.217Z"/><path fill="#000" d="M10.068 6.583h1.314v7.499h-1.314V6.583Z"/></svg>