<svg
  width="320"
  height="106"
  viewBox="0 0 320 106"
  fill="none"
  xmlns="http://www.w3.org/2000/svg"
  aria-hidden="true"
>
  <path
    fill-rule="evenodd"
    clip-rule="evenodd"
    d="M121.967 100.85C111.025 94.4622 100.311 85.1571 93.9195 74.0188C82.7065 54.4769 84.2516 40.2229 90.0171 25.722C95.8431 11.0641 117.139 2.42773 133.51 5.16348C149.881 7.89923 161.341 24.9128 183.42 27.3539C205.499 29.7949 223.447 41.3642 228.598 57.9098C234.006 75.282 223.418 89.8037 213.897 96.7648C211.934 98.1998 209.962 99.5537 207.951 100.817L121.967 100.85Z"
    fill="#009EE3"
    fill-opacity="0.1"
  ></path>
  <path d="M67 100.141L242 100.141" stroke="#333333" stroke-width="1.5"></path>
  <path
    d="M151.375 28.4407C151.811 21.8537 153.228 15.0963 157.84 10.1021C162.451 5.10786 170.991 2.44407 178.168 5.40911C183.989 7.8147 187.57 13.2448 189.023 18.5748C190.025 22.2783 190.141 26.3684 187.737 29.3171C185.716 31.796 181.495 32.9592 178.202 31.7172C176.977 31.2552 176.242 30.0751 175.851 28.8263V28.8263C175.342 27.1969 175.304 25.2985 176.628 24.2171C178.743 22.49 182.27 21.9593 185.278 22.8989C189.279 24.1486 192.239 27.4342 193.598 30.9019C194.957 34.3697 194.946 38.0231 194.685 41.5624C194.488 44.2536 193.941 47.1856 192.441 49.3842"
    stroke="#333333"
    stroke-width="1.5"
    stroke-miterlimit="10"
    stroke-dasharray="4.86 4.86"
  ></path>
  <path
    d="M220.09 75.9503C220.09 61.9276 205.144 59.7302 197.672 60.3843L188.283 61.4994C184.976 59.1088 180.765 58.8679 179.073 59.0464C177.779 61.544 178.294 65.469 178.714 67.1192C176.342 69.0103 174.85 72.5457 174.401 74.0771L172.02 74.8353C170.546 75.0851 170.058 76.1585 169.998 76.664V81.6147C169.998 82.364 170.897 83.0271 171.346 83.265L176.288 84.9152C177.797 88.412 181.978 91.1595 183.88 92.0961L185.722 99.9906H191.248L192.775 95.1736C196.836 96.1013 200.937 95.5601 202.479 95.1736L203.962 99.9906H210.251L211.823 92.0961C218.472 89.2416 220.105 80.3213 220.09 76.2179V75.9503Z"
    fill="white"
  ></path>
  <path
    d="M216.852 66.4989C212.032 60.891 202.972 59.9204 197.672 60.3843L188.283 61.4994C184.976 59.1088 180.765 58.8679 179.073 59.0464C177.779 61.544 178.294 65.469 178.714 67.1192C176.342 69.0103 174.85 72.5457 174.401 74.0771L172.02 74.8353C170.546 75.0851 170.058 76.1585 169.998 76.664C169.998 78.002 169.998 80.8654 169.998 81.6147C169.998 82.364 170.897 83.0271 171.346 83.265L176.288 84.9152C177.797 88.412 181.978 91.1595 183.88 92.0961L185.722 99.9906H191.248L192.775 95.1736C196.836 96.1013 200.937 95.5601 202.479 95.1736L203.962 99.9906H210.251L211.823 92.0961C218.472 89.2416 220.105 80.3213 220.09 76.2179V75.9503C220.09 75.1679 220.043 74.4222 219.954 73.7119M218.46 68.8549C218.797 69.4907 219.088 70.1702 219.328 70.8959"
    stroke="#333333"
    stroke-width="1.5"
    stroke-linejoin="round"
  ></path>
  <path
    d="M205.367 62.5932C205.367 66.041 202.612 68.8063 199.249 68.8063C195.886 68.8063 193.13 66.041 193.13 62.5932C193.13 59.1455 195.886 56.3801 199.249 56.3801C202.612 56.3801 205.367 59.1455 205.367 62.5932Z"
    fill="#5AD2FF"
    stroke="white"
    stroke-width="2.76023"
  ></path>
  <path
    d="M200.767 60.9525C200.545 60.4499 200.046 60.1406 199.171 60.1406C198.255 60.1406 197.574 60.6577 197.574 61.4156C197.574 62.3549 198.129 62.5452 198.972 62.7694C199.026 62.784 199.079 62.7985 199.131 62.8131L199.236 62.8426C199.915 63.0361 200.767 63.2236 200.842 63.9775C200.917 64.7313 200.32 65.4029 199.11 65.4001C198.255 65.3982 197.532 64.9954 197.402 64.3592"
    stroke="#333333"
    stroke-width="1.5"
  ></path>
  <path d="M199.049 58.4297V60.1402" stroke="#333333" stroke-width="1.5"></path>
  <path
    d="M199.049 65.3984V67.109"
    stroke="#333333"
    stroke-width="1.38012"
  ></path>
  <ellipse
    cx="199.249"
    cy="62.5932"
    rx="7.49875"
    ry="7.59322"
    stroke="#333333"
    stroke-width="1.5"
  ></ellipse>
  <path
    d="M191.894 68.94C191.893 67.8528 190.663 66.4076 191.533 65.7359C196.252 64.9565 202.786 64.9565 207.138 65.7327L208.228 71.6019L193.807 75.6637L191.894 68.94Z"
    fill="white"
  ></path>
  <path
    d="M207.414 65.4045C207.414 65.4045 204.343 64.9961 199.547 64.9961C194.752 64.9961 191.759 65.4045 191.759 65.4045"
    stroke="#333333"
    stroke-width="1.5"
    stroke-linecap="round"
    stroke-linejoin="round"
  ></path>
  <path
    d="M219.61 46.5768C219.25 45.8001 218.143 45.8046 217.789 46.5842L217.084 48.1411C216.984 48.361 216.808 48.5375 216.589 48.6379L215.007 49.3601C214.225 49.7174 214.229 50.8285 215.014 51.1803L216.582 51.8836C216.806 51.9839 216.985 52.1628 217.085 52.3861L217.788 53.9505C218.14 54.734 219.253 54.7385 219.611 53.9579L220.336 52.3787C220.436 52.1599 220.613 51.9846 220.832 51.8851L222.392 51.1788C223.172 50.8255 223.176 49.7204 222.398 49.3616L220.826 48.6363C220.61 48.5368 220.437 48.3639 220.337 48.1485L219.61 46.5768Z"
    fill="white"
    stroke="#333333"
    stroke-width="1.5"
  ></path>
  <path
    d="M227.113 57.5938L229.038 56.4839"
    stroke="#333333"
    stroke-width="1.5"
    stroke-linejoin="round"
  ></path>
  <path
    d="M230.711 55.5234L232.636 54.4136"
    stroke="#333333"
    stroke-width="1.5"
    stroke-linejoin="round"
  ></path>
  <path
    d="M228.277 53.25L229.388 55.1716"
    stroke="#333333"
    stroke-width="1.5"
    stroke-linejoin="round"
  ></path>
  <path
    d="M230.355 56.8359L231.467 58.7575"
    stroke="#333333"
    stroke-width="1.5"
    stroke-linejoin="round"
  ></path>
  <path
    d="M228.113 44.7969L229.368 45.5201"
    stroke="#333333"
    stroke-width="1.5"
    stroke-linejoin="round"
  ></path>
  <path
    d="M230.457 46.1445L231.711 46.8677"
    stroke="#333333"
    stroke-width="1.5"
    stroke-linejoin="round"
  ></path>
  <path
    d="M230.949 44.0352L230.225 45.2873"
    stroke="#333333"
    stroke-width="1.5"
    stroke-linejoin="round"
  ></path>
  <path
    d="M229.594 46.3789L228.87 47.631"
    stroke="#333333"
    stroke-width="1.5"
    stroke-linejoin="round"
  ></path>
  <path
    fill-rule="evenodd"
    clip-rule="evenodd"
    d="M122.78 99.6938C123.026 99.6938 90.9727 58.8856 90.9438 59.1655L80.1685 99.0634C80.0827 99.3812 80.3221 99.6938 80.6512 99.6938H100.55"
    fill="white"
  ></path>
  <path
    fill-rule="evenodd"
    clip-rule="evenodd"
    d="M122.776 99.6902C122.924 99.6902 110.769 87.7025 101.001 78.1585C100.153 77.3305 96.7833 61.0757 95.9813 60.2939C90.6061 55.0535 89.0096 66.5081 88.9995 66.6056L93.5279 99.2589C93.5622 99.5061 93.7735 99.6902 94.0231 99.6902H100.546"
    fill="#EEEEEE"
  ></path>
  <path
    d="M83.096 88.224L90.9438 59.1655C90.9727 58.8856 123.026 99.6938 122.78 99.6938H100.55H80.6512C80.3221 99.6938 80.0827 99.3812 80.1685 99.0634L82.4267 90.702"
    stroke="#333333"
    stroke-width="1.5"
  ></path>
  <path
    fill-rule="evenodd"
    clip-rule="evenodd"
    d="M89.116 51.0521C88.9336 49.8424 89.8703 48.7539 91.0936 48.7539H144.714C145.697 48.7539 146.534 49.4673 146.689 50.4371L154.218 97.3732C154.413 98.5886 153.474 99.6899 152.243 99.6899H98.1696C97.1802 99.6899 96.3395 98.9665 96.192 97.9881L89.116 51.0521Z"
    fill="white"
    stroke="#333333"
    stroke-width="1.5"
  ></path>
  <path
    fill-rule="evenodd"
    clip-rule="evenodd"
    d="M87.7827 104.996C87.8004 104.998 87.8182 105 87.8359 105L87.7827 104.996Z"
    fill="white"
  ></path>
  <path
    d="M87.8817 104.253C87.8666 104.251 87.8513 104.25 87.8359 104.25V105.75C87.785 105.75 87.7342 105.746 87.6838 105.74L87.8817 104.253Z"
    fill="#333333"
  ></path>
  <path
    fill-rule="evenodd"
    clip-rule="evenodd"
    d="M91.8492 46.1195C91.6713 44.912 92.6073 43.8281 93.8278 43.8281H147.441C148.43 43.8281 149.271 44.5512 149.418 45.5292L157.258 97.3945C157.441 98.6044 156.505 99.6934 155.281 99.6934H101.466C100.474 99.6934 99.6321 98.9663 99.4876 97.9848L91.8492 46.1195Z"
    fill="white"
    stroke="#333333"
    stroke-width="1.5"
  ></path>
  <path
    d="M95.9122 41.52C95.8666 41.2175 96.1008 40.9453 96.4066 40.9453H150.183C150.43 40.9453 150.64 41.1261 150.677 41.3707L159.169 97.6176C159.214 97.92 158.98 98.1922 158.674 98.1922H104.898C104.651 98.1922 104.441 98.0114 104.404 97.7669L95.9122 41.52Z"
    fill="#5AD2FF"
    stroke="white"
    stroke-width="3"
  ></path>
  <path
    fill-rule="evenodd"
    clip-rule="evenodd"
    d="M100.243 50.6456C100.034 49.424 100.975 48.3086 102.215 48.3086H107.786C108.76 48.3086 109.593 49.011 109.757 49.9716L110.588 54.8333C110.797 56.0548 109.856 57.1702 108.617 57.1702H103.046C102.071 57.1702 101.238 56.4678 101.074 55.5072L100.243 50.6456Z"
    fill="white"
    stroke="#333333"
    stroke-width="1.5"
  ></path>
  <path
    fill-rule="evenodd"
    clip-rule="evenodd"
    d="M113.96 50.6069C113.777 49.3972 114.714 48.3086 115.938 48.3086H120.389C121.378 48.3086 122.219 49.032 122.366 50.0103L123.1 54.872C123.282 56.0817 122.345 57.1702 121.122 57.1702H116.671C115.681 57.1702 114.841 56.4468 114.693 55.4685L113.96 50.6069Z"
    fill="white"
    stroke="#333333"
    stroke-width="1.5"
  ></path>
  <path
    fill-rule="evenodd"
    clip-rule="evenodd"
    d="M126.443 50.6263C126.248 49.4106 127.186 48.3086 128.418 48.3086H133.429C134.411 48.3086 135.248 49.0214 135.404 49.9909L136.186 54.8526C136.381 56.0683 135.443 57.1702 134.211 57.1702H129.2C128.218 57.1702 127.381 56.4574 127.225 55.4879L126.443 50.6263Z"
    fill="white"
    stroke="#333333"
    stroke-width="1.5"
  ></path>
  <path
    fill-rule="evenodd"
    clip-rule="evenodd"
    d="M140.209 50.6263C140.013 49.4106 140.952 48.3086 142.183 48.3086H147.195C148.177 48.3086 149.013 49.0214 149.169 49.9909L149.951 54.8526C150.147 56.0683 149.208 57.1702 147.977 57.1702H142.966C141.984 57.1702 141.147 56.4574 140.991 55.4879L140.209 50.6263Z"
    fill="white"
    stroke="#333333"
    stroke-width="1.5"
  ></path>
  <path
    fill-rule="evenodd"
    clip-rule="evenodd"
    d="M103.466 66.1063C103.286 64.898 104.222 63.8125 105.444 63.8125H110.463C111.454 63.8125 112.296 64.5384 112.441 65.5187L113.273 71.1188C113.452 72.3271 112.516 73.4126 111.294 73.4126H106.276C105.284 73.4126 104.443 72.6868 104.297 71.7064L103.466 66.1063Z"
    fill="white"
    stroke="#333333"
    stroke-width="1.5"
  ></path>
  <path
    fill-rule="evenodd"
    clip-rule="evenodd"
    d="M106.119 82.3802C105.923 81.1645 106.862 80.0625 108.094 80.0625H113.105C114.087 80.0625 114.924 80.7754 115.08 81.7448L115.862 86.6065C116.057 87.8222 115.118 88.9241 113.887 88.9241H108.876C107.894 88.9241 107.057 88.2113 106.901 87.2418L106.119 82.3802Z"
    fill="white"
    stroke="#333333"
    stroke-width="1.5"
  ></path>
  <path
    fill-rule="evenodd"
    clip-rule="evenodd"
    d="M116.555 66.0883C116.388 64.8856 117.322 63.8125 118.536 63.8125H122.994C123.992 63.8125 124.837 64.5482 124.975 65.5367L125.754 71.1368C125.922 72.3395 124.988 73.4126 123.773 73.4126H119.316C118.318 73.4126 117.472 72.6769 117.335 71.6884L116.555 66.0883Z"
    fill="white"
    stroke="#333333"
    stroke-width="1.5"
  ></path>
  <path
    fill-rule="evenodd"
    clip-rule="evenodd"
    d="M119.232 82.3802C119.037 81.1645 119.976 80.0625 121.207 80.0625H126.218C127.2 80.0625 128.037 80.7754 128.193 81.7448L128.975 86.6065C129.17 87.8222 128.232 88.9241 127 88.9241H121.989C121.007 88.9241 120.17 88.2113 120.014 87.2418L119.232 82.3802Z"
    fill="white"
    stroke="#333333"
    stroke-width="1.5"
  ></path>
  <path
    fill-rule="evenodd"
    clip-rule="evenodd"
    d="M129.684 66.1063C129.505 64.898 130.441 63.8125 131.663 63.8125H136.682C137.673 63.8125 138.514 64.5384 138.66 65.5187L139.492 71.1188C139.671 72.3271 138.735 73.4126 137.513 73.4126H132.494C131.503 73.4126 130.662 72.6868 130.516 71.7064L129.684 66.1063Z"
    fill="white"
    stroke="#333333"
    stroke-width="1.5"
  ></path>
  <path
    fill-rule="evenodd"
    clip-rule="evenodd"
    d="M132.338 82.3802C132.142 81.1645 133.081 80.0625 134.312 80.0625H139.324C140.306 80.0625 141.142 80.7754 141.298 81.7448L142.08 86.6065C142.276 87.8222 141.337 88.9241 140.106 88.9241H135.094C134.112 88.9241 133.276 88.2113 133.12 87.2418L132.338 82.3802Z"
    fill="white"
    stroke="#333333"
    stroke-width="1.5"
  ></path>
  <path
    fill-rule="evenodd"
    clip-rule="evenodd"
    d="M142.794 66.1063C142.614 64.898 143.551 63.8125 144.772 63.8125H149.791C150.782 63.8125 151.624 64.5384 151.769 65.5187L152.601 71.1188C152.78 72.3271 151.844 73.4126 150.623 73.4126H145.604C144.613 73.4126 143.771 72.6868 143.625 71.7064L142.794 66.1063Z"
    fill="white"
    stroke="#333333"
    stroke-width="1.5"
  ></path>
  <path
    fill-rule="evenodd"
    clip-rule="evenodd"
    d="M145.451 82.3802C145.255 81.1645 146.194 80.0625 147.426 80.0625H152.437C153.419 80.0625 154.256 80.7754 154.412 81.7448L155.194 86.6065C155.389 87.8222 154.45 88.9241 153.219 88.9241H148.208C147.226 88.9241 146.389 88.2113 146.233 87.2418L145.451 82.3802Z"
    fill="white"
    stroke="#333333"
    stroke-width="1.5"
  ></path>
  <path
    d="M150.183 39.4453H96.4066C95.1831 39.4453 94.2464 40.5341 94.429 41.7439L102.921 97.9908C103.068 98.969 103.909 99.6922 104.898 99.6922H158.674C159.898 99.6922 160.835 98.6035 160.652 97.3937L156.036 66.8207L152.16 41.1468C152.013 40.1686 151.172 39.4453 150.183 39.4453Z"
    stroke="#333333"
    stroke-width="1.5"
  ></path>
  <path
    d="M107.851 43.1371C110.931 42.4906 112.862 39.2778 112.164 35.9611C111.466 32.6444 108.403 30.4798 105.323 31.1263C102.243 31.7728 100.312 34.9856 101.01 38.3023"
    stroke="#333333"
    stroke-width="1.5"
    stroke-linecap="round"
    stroke-linejoin="round"
  ></path>
  <path
    d="M122.851 43.1371C125.931 42.4906 127.862 39.2778 127.164 35.9611C126.466 32.6444 123.403 30.4798 120.323 31.1263C117.243 31.7728 115.312 34.9856 116.01 38.3023"
    stroke="#333333"
    stroke-width="1.5"
    stroke-linecap="round"
    stroke-linejoin="round"
  ></path>
  <path
    d="M137.851 43.5941C140.931 42.9476 142.862 39.7348 142.164 36.4182C141.466 33.1015 138.403 30.9368 135.323 31.5833C132.243 32.2298 130.312 35.4426 131.01 38.7593"
    stroke="#333333"
    stroke-width="1.5"
    stroke-linecap="round"
    stroke-linejoin="round"
  ></path>
</svg>
