<svg xmlns="http://www.w3.org/2000/svg" fill="none" viewBox="0 0 24 24"><path stroke="#000" stroke-linecap="square" stroke-linejoin="round" stroke-width="1.5" d="M12.738 3.598c1.802 0 2.204.482 2.204.482 1.427-1.033 3.243-1.137 3.973-1.06.558 1.079.336 2.775.155 3.488 1.023.817 1.667 2.344 1.86 3.005l1.028.328c.636.108.846.572.872.79v2.139c0 .324-.388.61-.581.713l-2.132.713c-.651 1.51-2.455 2.697-3.275 3.102l-.795 3.41h-2.384l-.659-2.08c-1.752.4-3.52.166-4.186 0l-.64 2.08H5.467l-.679-3.41C1.904 16.033.994 12.712 1 10.939c.008-2.191.917-3.668 1.417-4.395.5-.727 1.797-2.946 6.13-2.946"/><path fill="#000" d="m10.983 6.583-4.432 4.432.884.884 3.504-3.503 3.332 3.333.929-.93-4.217-4.216Z"/><path fill="#000" d="M11.683 15.559h-1.314v-7.5h1.314v7.5Z"/></svg>