<svg
  width="512"
  height="346.84"
  viewBox="0 0 200 135"
  fill="none"
  xmlns="http://www.w3.org/2000/svg"
  aria-hidden="true"
>
  <path
    fill-rule="evenodd"
    clip-rule="evenodd"
    d="M50.3782 132.4C35.2326 123.667 20.4024 110.946 11.5563 95.718C-3.96391 69.001 -1.82524 49.5135 6.15492 29.6885C14.2188 9.64883 43.6944 -2.15853 66.3546 1.58168C89.0148 5.32189 104.876 28.5822 135.436 31.9195C165.996 35.2568 190.839 51.0739 197.969 73.6943C205.454 97.4449 190.798 117.298 177.62 126.815C174.904 128.777 172.174 130.628 169.391 132.355L50.3782 132.4Z"
    fill="#00c4c4"
    fill-opacity="0.15"
  ></path>
  <path
    d="M0.0297356 133.406H199.182"
    stroke="#333333"
    stroke-width="1.5"
    stroke-miterlimit="10"
  ></path>
  <path
    d="M141.888 24.4401L129.065 29.2188L128.997 29.1718C127.574 28.1822 125.85 26.9842 123.667 26.2764C123.986 24.1875 124.664 21.71 124.065 17.4638C123.272 11.8498 120.843 5.74129 119.184 2.41992C117.278 3.37277 113.364 4.47112 110.114 9.9732C108.542 14.1614 107.185 16.1844 108.773 22.7132C106.585 23.2778 104.501 23.5923 104.083 23.7211C103.086 21.9143 100.247 15.5733 91.7396 14.1439C89.4786 13.7641 80.0008 20.1027 78.9416 24.9623C79.5024 27.7659 81.4825 33.076 84.2951 35.685C86.2786 37.5251 87.265 38.0514 88.1334 38.3604C86.2033 42.8149 85.4161 47.846 86.1069 52.9398C84.0269 69.2728 33.6093 56.9368 33.6093 102C33.6093 103.161 33.8717 107.314 34.4428 110.292C28.7324 110.761 26.1574 113.851 24.6443 115.533C24.404 117.001 19.5093 116.655 18.4063 121.631C21.6915 119.653 23.148 116.668 24.1184 122.447C24.6376 123.35 25.0974 124.527 26.6269 125.282C27.3894 125.472 31.5624 126.383 32.6025 121.753C32.7272 121.399 33.1531 118.939 30.0328 117.042C28.3993 115.518 24.6443 117.674 29.7269 119.877C31.1545 123.854 25.7484 123.686 25.852 119.877C26.7697 116.084 29.2293 115.844 29.6045 115.717C31.5455 114.893 34.2317 114.086 35.9879 115.105C37.905 120.836 43.6134 126.331 44.3402 126.861C53.4329 133.482 63.5671 133.482 75.6089 133.482C79.6104 133.482 87.8116 133.555 92.8371 132.622C99.2112 130.497 99.783 129.748 101.367 133.434C104.554 134.309 106.428 130.53 107.179 129.497C108.222 128.979 110.433 133.894 111.399 133.194C111.528 132.39 111.629 130.351 114.582 133.763C115.599 132.188 116.377 131.221 116.846 130.351C118.322 131.696 119.7 132.779 121.013 133.763C121.633 125.033 122.733 114.852 123.829 103.8C127.973 91.2579 130.59 77.7695 131.156 66.8833C137.54 61.9767 143.854 56.3466 146.359 46.5224C146.998 44.0124 151.31 42.2308 151.421 40.539C153.529 28.2695 145.944 24.6942 141.888 24.4401Z"
    fill="white"
  ></path>
  <path
    d="M119.027 105.524C116.389 110.013 115.302 111.287 113.247 113.237L112.771 120.931C116.829 116.715 117.614 116.086 121.886 107.503C124.985 101.273 126.002 97.0415 126.002 97.0415C126.002 97.0415 128.834 86.4964 129.322 83.2889C129.809 80.0814 130.393 76.2039 130.393 76.2039C130.393 76.2039 127.592 85.8052 124.498 93.9447C122.436 99.3683 120.025 103.825 119.027 105.524Z"
    fill="#EEEEEE"
  ></path>
  <path
    d="M73.3477 133.285L73.3477 132.535L73.3477 133.285ZM92.9749 133.335L92.973 134.085L93.723 134.087L93.7249 133.337L92.9749 133.335ZM92.9818 130.618L93.7318 130.62L93.7327 130.241L93.4278 130.015L92.9818 130.618ZM90.2501 128.598L89.9065 127.931L88.8344 128.483L89.804 129.201L90.2501 128.598ZM92.9903 127.186L93.3339 127.853L95.1169 126.934L93.1685 126.457L92.9903 127.186ZM84.004 122.785L83.431 123.269L83.4768 123.323L83.5318 123.368L84.004 122.785ZM66.1046 108.697L66.3604 107.992L66.1046 108.697ZM48.1883 126.182L47.5158 126.514L47.5227 126.528L47.5303 126.542L48.1883 126.182ZM47.7268 116.867C47.8755 116.48 47.6826 116.047 47.296 115.898C46.9094 115.749 46.4755 115.942 46.3268 116.329L47.7268 116.867ZM60.3569 106.871C59.9431 106.852 59.5916 107.171 59.5718 107.585C59.5519 107.998 59.8712 108.35 60.2849 108.37L60.3569 106.871ZM123.604 103.428L122.906 103.153C122.903 103.161 122.9 103.168 122.897 103.176L123.604 103.428ZM121.036 133.506L120.516 134.047C120.729 134.252 121.043 134.312 121.317 134.202C121.591 134.091 121.775 133.829 121.786 133.534L121.036 133.506ZM116.651 129.291L117.17 128.751C116.995 128.582 116.749 128.509 116.509 128.555C116.27 128.601 116.069 128.76 115.968 128.981L116.651 129.291ZM114.736 133.506L114.281 134.103C114.463 134.241 114.697 134.289 114.919 134.234C115.14 134.178 115.324 134.024 115.419 133.816L114.736 133.506ZM144.622 28.957C145.036 28.9793 145.389 28.662 145.412 28.2484C145.434 27.8348 145.117 27.4814 144.703 27.4592L144.622 28.957ZM148.429 32.6687C148.455 32.2553 148.141 31.8988 147.728 31.8724C147.315 31.846 146.958 32.1597 146.932 32.573L148.429 32.6687ZM128.875 29.3143L128.357 29.8572L128.698 30.1819L129.139 30.0163L128.875 29.3143ZM141.844 24.4407L141.891 23.6922L141.731 23.6821L141.581 23.7387L141.844 24.4407ZM151.377 40.5396L150.638 40.4125L150.631 40.4513L150.629 40.4906L151.377 40.5396ZM33.5658 102H32.8158H33.5658ZM86.0635 52.9404L86.8075 53.0352L86.8199 52.9374L86.8067 52.8396L86.0635 52.9404ZM146.315 46.523L147.042 46.7082L146.315 46.523ZM131.112 66.8838L130.655 66.2892L130.381 66.4998L130.363 66.8449L131.112 66.8838ZM44.2967 126.861L44.7382 126.255H44.7382L44.2967 126.861ZM104.039 23.7217L103.382 24.0839L103.677 24.6178L104.26 24.4385L104.039 23.7217ZM91.6962 14.1445L91.8204 13.4049L91.6962 14.1445ZM78.8982 24.9629L78.1654 24.8031L78.132 24.9563L78.1627 25.1099L78.8982 24.9629ZM84.2516 35.6856L84.7616 35.1358L84.2516 35.6856ZM88.0899 38.361L88.7781 38.6592L89.097 37.9232L88.3413 37.6544L88.0899 38.361ZM110.198 10.0421L109.582 9.61415L109.56 9.64535L109.542 9.67858L110.198 10.0421ZM119.015 2.41992L119.686 2.08483L119.35 1.41353L118.679 1.7491L119.015 2.41992ZM108.228 22.9971V23.7471H108.245L108.262 23.7464L108.228 22.9971ZM34.3993 110.292L34.3995 111.042L35.3068 111.042L35.1359 110.151L34.3993 110.292ZM35.9445 115.105L36.6557 114.867L36.4701 114.313L35.8868 114.358L35.9445 115.105ZM24.8743 116.33L25.5535 116.648L24.8743 116.33ZM26.1736 124.732L26.6601 124.161L26.1736 124.732ZM32.8373 122.812L33.5312 123.096L32.8373 122.812ZM29.544 116.576L29.2262 117.255L29.2909 117.286L29.3601 117.303L29.544 116.576ZM20.758 118.405L20.2536 117.85L20.2533 117.85L20.758 118.405ZM17.2817 125.056L16.532 125.078L17.9812 125.326L17.2817 125.056ZM22.4251 119.472L22.7284 120.158L22.7333 120.156L22.4251 119.472ZM29.8748 119.554L30.4297 119.05L30.4248 119.044L30.4198 119.039L29.8748 119.554ZM26.9007 122.259L27.4555 121.755L26.9007 122.259ZM28.5993 116.445L28.1963 115.812L28.5993 116.445ZM26.8495 118.284L26.1949 117.918L26.8495 118.284ZM111.83 133.335L111.344 133.906C111.566 134.094 111.876 134.138 112.141 134.017C112.406 133.897 112.577 133.634 112.58 133.343L111.83 133.335ZM107.079 129.291L107.565 128.72L106.932 128.181L106.461 128.867L107.079 129.291ZM104.182 133.506V134.256H104.577L104.8 133.931L104.182 133.506ZM101.153 133.506L100.435 133.723L100.596 134.256H101.153V133.506ZM99.6922 130.361L100.374 130.048L99.6922 130.361ZM112.454 121.533L113.202 121.598L112.454 121.533ZM93.7717 27.0168L94.4876 27.2405L93.7717 27.0168ZM123.899 102.68L124.598 102.951L123.899 102.68ZM73.3477 134.035C75.8726 134.035 89.6781 134.076 92.973 134.085L92.9768 132.585C89.6852 132.576 75.875 132.535 73.3477 132.535L73.3477 134.035ZM93.7249 133.337L93.7318 130.62L92.2318 130.616L92.2249 133.333L93.7249 133.337ZM93.4278 130.015L90.6961 127.995L89.804 129.201L92.5357 131.221L93.4278 130.015ZM90.5936 129.264L93.3339 127.853L92.6468 126.519L89.9065 127.931L90.5936 129.264ZM93.1685 126.457C89.6544 125.598 86.4565 123.807 84.4762 122.202L83.5318 123.368C85.668 125.099 89.0635 126.998 92.8122 127.914L93.1685 126.457ZM84.577 122.301C78.174 114.72 72.0675 110.062 66.3604 107.992L65.8488 109.402C71.2157 111.349 77.1186 115.795 83.431 123.269L84.577 122.301ZM47.5303 126.542C49.5957 130.318 52.5686 132.204 56.783 133.13C60.9251 134.039 66.3405 134.035 73.3477 134.035L73.3477 132.535C66.2717 132.535 61.0501 132.531 57.1047 131.665C53.2315 130.814 50.6663 129.149 48.8463 125.822L47.5303 126.542ZM46.3268 116.329C45.779 117.753 45.7073 119.536 45.9425 121.308C46.1792 123.091 46.736 124.935 47.5158 126.514L48.8607 125.85C48.1551 124.421 47.6451 122.735 47.4294 121.111C47.2123 119.475 47.3026 117.97 47.7268 116.867L46.3268 116.329ZM66.3604 107.992C64.8307 107.436 62.6749 106.983 60.3569 106.871L60.2849 108.37C62.4683 108.475 64.4743 108.903 65.8488 109.402L66.3604 107.992ZM122.897 103.176C122.454 104.415 122.085 106.96 121.77 109.97C121.452 113.018 121.181 116.648 120.961 120.127C120.742 123.608 120.573 126.945 120.459 129.412C120.402 130.646 120.359 131.662 120.33 132.37C120.316 132.724 120.305 133.001 120.298 133.189C120.294 133.284 120.291 133.356 120.289 133.405C120.288 133.429 120.288 133.447 120.287 133.46C120.287 133.466 120.287 133.471 120.287 133.474C120.287 133.475 120.287 133.477 120.287 133.477C120.287 133.478 120.287 133.478 120.287 133.478C120.287 133.478 120.287 133.479 121.036 133.506C121.786 133.534 121.786 133.534 121.786 133.534C121.786 133.533 121.786 133.533 121.786 133.533C121.786 133.532 121.786 133.531 121.786 133.529C121.786 133.526 121.786 133.522 121.786 133.516C121.787 133.503 121.787 133.485 121.788 133.461C121.79 133.413 121.793 133.341 121.796 133.247C121.804 133.06 121.815 132.784 121.829 132.431C121.858 131.725 121.901 130.712 121.958 129.481C122.071 127.02 122.239 123.691 122.458 120.221C122.677 116.75 122.947 113.145 123.262 110.126C123.581 107.07 123.939 104.717 124.31 103.681L122.897 103.176ZM121.556 132.965L117.17 128.751L116.131 129.832L120.516 134.047L121.556 132.965ZM115.968 128.981L114.053 133.196L115.419 133.816L117.334 129.602L115.968 128.981ZM115.19 132.91L112.285 130.695L111.376 131.888L114.281 134.103L115.19 132.91ZM144.703 27.4592C144.165 27.4303 143.608 27.5716 143.265 28.0578C142.955 28.4972 142.962 29.0292 143.034 29.4392C143.181 30.2787 143.712 31.2681 144.298 32.0804C144.878 32.8846 145.632 33.6837 146.341 34.0327C146.683 34.2009 147.238 34.3699 147.754 34.0497C148.253 33.7396 148.397 33.1618 148.429 32.6687L146.932 32.573C146.908 32.9405 146.818 32.865 146.962 32.7756C147.122 32.6761 147.201 32.7842 147.004 32.6869C146.633 32.5047 146.056 31.9536 145.515 31.2031C144.979 30.4608 144.601 29.6909 144.512 29.181C144.465 28.9164 144.523 28.8762 144.491 28.9226C144.425 29.0159 144.372 28.9435 144.622 28.957L144.703 27.4592ZM129.139 30.0163L142.108 25.1428L141.581 23.7387L128.611 28.6122L129.139 30.0163ZM141.797 25.1893C143.665 25.3062 146.373 26.1964 148.357 28.4767C150.317 30.7299 151.663 34.4479 150.638 40.4125L152.116 40.6666C153.2 34.3618 151.807 30.1574 149.488 27.4921C147.193 24.8538 144.08 23.8293 141.891 23.6922L141.797 25.1893ZM150.629 40.4906C150.62 40.6265 150.504 40.8859 150.09 41.3137C149.697 41.7203 149.17 42.147 148.566 42.6469C147.982 43.1307 147.341 43.6723 146.805 44.2631C146.271 44.8516 145.791 45.5411 145.588 46.3377L147.042 46.7082C147.159 46.2499 147.458 45.7755 147.916 45.2711C148.371 44.769 148.935 44.2889 149.523 43.802C150.091 43.3313 150.702 42.8385 151.168 42.3568C151.614 41.8963 152.079 41.2985 152.125 40.5885L150.629 40.4906ZM145.588 46.3377C143.15 55.9052 137.011 61.4038 130.655 66.2892L131.569 67.4785C137.981 62.5507 144.472 56.7892 147.042 46.7082L145.588 46.3377ZM75.5654 132.733C63.4795 132.733 53.6023 132.71 44.7382 126.255L43.8552 127.467C53.1766 134.255 63.5677 134.233 75.5654 134.233V132.733ZM104.696 23.3594C103.712 21.5753 100.721 14.9004 91.8204 13.4049L91.5719 14.8842C99.6857 16.2475 102.373 22.2544 103.382 24.0839L104.696 23.3594ZM91.8204 13.4049C91.3614 13.3278 90.8288 13.4281 90.3207 13.584C89.7897 13.7468 89.1891 14.0013 88.5539 14.3216C87.2817 14.9631 85.812 15.8986 84.3888 16.9947C82.9658 18.0908 81.5691 19.3629 80.4535 20.6853C79.3483 21.9953 78.4681 23.4142 78.1654 24.8031L79.631 25.1226C79.8578 24.0817 80.5595 22.8859 81.6 21.6525C82.6301 20.4315 83.9427 19.2316 85.3041 18.1831C86.6654 17.1346 88.0553 16.2529 89.2293 15.6609C89.8171 15.3645 90.3361 15.1482 90.7604 15.0181C91.2075 14.881 91.4656 14.8663 91.5719 14.8842L91.8204 13.4049ZM78.1627 25.1099C78.4556 26.5745 79.1102 28.6581 80.0484 30.7092C80.9823 32.7509 82.2301 34.8334 83.7415 36.2355L84.7616 35.1358C83.4605 33.9288 82.312 32.0518 81.4125 30.0853C80.5173 28.1281 79.9014 26.1549 79.6336 24.8158L78.1627 25.1099ZM83.7415 36.2355C85.766 38.1135 86.8386 38.7119 87.8385 39.0676L88.3413 37.6544C87.6044 37.3922 86.7043 36.9379 84.7616 35.1358L83.7415 36.2355ZM86.8067 52.8396C86.135 47.8869 86.9001 42.9934 88.7781 38.6592L87.4017 38.0628C85.4196 42.6375 84.6103 47.8063 85.3203 53.0412L86.8067 52.8396ZM110.814 10.4701C113.777 6.20601 117.505 4.01323 119.35 3.09074L118.679 1.7491C116.713 2.73232 112.742 5.06611 109.582 9.61415L110.814 10.4701ZM104.26 24.4385C104.717 24.2978 105.863 23.7471 108.228 23.7471V22.2471C105.587 22.2471 104.199 22.8879 103.819 23.0048L104.26 24.4385ZM108.957 22.8199C108.184 19.6399 108.197 17.4092 108.611 15.5683C109.028 13.7104 109.863 12.194 110.854 10.4057L109.542 9.67858C108.564 11.4435 107.619 13.1402 107.147 15.2394C106.672 17.3554 106.685 19.8256 107.5 23.1744L108.957 22.8199ZM118.344 2.75501C119.162 4.39429 120.925 8.34602 122.091 12.7973C123.268 17.2879 123.788 22.1043 122.322 25.5861L123.704 26.1684C125.376 22.1981 124.732 16.9566 123.542 12.417C122.342 7.83798 120.536 3.7871 119.686 2.08483L118.344 2.75501ZM108.262 23.7464C113.753 23.4996 118.558 24.8123 122.115 26.3069C125.693 27.8098 127.953 29.4718 128.357 29.8572L129.392 28.7713C128.816 28.222 126.382 26.4724 122.696 24.924C118.991 23.3672 113.962 21.9887 108.195 22.2479L108.262 23.7464ZM35.1359 110.151C34.575 107.227 34.3158 103.122 34.3158 102H32.8158C32.8158 103.202 33.0815 107.403 33.6627 110.434L35.1359 110.151ZM44.7382 126.255C44.4522 126.047 42.8913 124.599 41.1483 122.46C39.4136 120.332 37.5723 117.607 36.6557 114.867L35.2332 115.343C36.2337 118.334 38.2051 121.223 39.9856 123.408C41.7577 125.582 43.4144 127.146 43.8552 127.467L44.7382 126.255ZM34.3991 109.542C33.083 109.543 31.1118 109.959 29.1933 110.955C27.2648 111.957 25.337 113.573 24.1951 116.012L25.5535 116.648C26.5226 114.579 28.1715 113.176 29.8848 112.286C31.6082 111.391 33.3439 111.043 34.3995 111.042L34.3991 109.542ZM25.6871 125.303C26.5582 126.045 28.099 126.459 29.5911 126.241C31.1408 126.014 32.7108 125.095 33.5312 123.096L32.1435 122.527C31.5478 123.978 30.4634 124.597 29.3739 124.756C28.2269 124.924 27.1438 124.573 26.6601 124.161L25.6871 125.303ZM33.5312 123.096C34.3699 121.053 33.7806 119.298 32.8221 118.057C31.8957 116.856 30.5764 116.063 29.7278 115.849L29.3601 117.303C29.8499 117.427 30.8918 118.011 31.6347 118.973C32.3456 119.894 32.7338 121.089 32.1435 122.527L33.5312 123.096ZM20.2533 117.85C17.5819 120.28 16.4632 122.737 16.532 125.078L18.0314 125.034C17.9791 123.257 18.8084 121.192 21.2626 118.96L20.2533 117.85ZM17.9812 125.326C18.2103 124.734 18.7372 123.723 19.551 122.712C20.3643 121.702 21.4316 120.731 22.7284 120.158L22.1219 118.786C20.5395 119.486 19.2925 120.641 18.3825 121.772C17.4731 122.902 16.8679 124.047 16.5822 124.785L17.9812 125.326ZM29.32 120.059C29.5874 120.353 29.7621 120.727 29.8025 121.064C29.8413 121.387 29.757 121.623 29.5768 121.787L30.5861 122.897C31.202 122.337 31.375 121.576 31.2918 120.885C31.2102 120.206 30.8835 119.549 30.4297 119.05L29.32 120.059ZM29.5768 121.787C29.2607 122.075 28.8951 122.259 28.5543 122.284C28.2515 122.307 27.8741 122.215 27.4555 121.755L26.3458 122.764C27.0428 123.53 27.8578 123.841 28.6674 123.78C29.439 123.722 30.1061 123.334 30.5861 122.897L29.5768 121.787ZM29.0023 117.077C29.8006 116.568 31.0374 116.282 32.3945 116.118C33.7517 115.954 35.0331 115.928 36.0021 115.853L35.8868 114.358C35.0423 114.423 33.6013 114.461 32.2144 114.629C30.8275 114.797 29.2984 115.11 28.1963 115.812L29.0023 117.077ZM29.8617 115.897C29.7723 115.855 29.68 115.832 29.6345 115.822C29.571 115.807 29.4956 115.793 29.408 115.779C29.2324 115.751 28.9879 115.722 28.6565 115.697L28.5421 117.192C28.8454 117.216 29.0481 117.241 29.1735 117.26C29.2365 117.27 29.275 117.278 29.2942 117.283C29.3038 117.285 29.3044 117.285 29.2982 117.284C29.2974 117.283 29.2676 117.275 29.2262 117.255L29.8617 115.897ZM27.4555 121.755C26.9184 121.164 26.7963 119.915 27.504 118.65L26.1949 117.918C25.3028 119.513 25.2185 121.524 26.3458 122.764L27.4555 121.755ZM27.504 118.65C27.8345 118.06 28.3323 117.504 29.0023 117.077L28.1963 115.812C27.3112 116.376 26.6429 117.117 26.1949 117.918L27.504 118.65ZM30.4198 119.039C30.1461 118.75 29.6679 118.362 29.0626 118.052C28.4551 117.742 27.6733 117.488 26.8089 117.535L26.89 119.033C27.4141 119.005 27.93 119.158 28.3805 119.388C28.8333 119.62 29.1736 119.904 29.3298 120.07L30.4198 119.039ZM24.1951 116.012C23.7049 117.058 23.4285 118.04 23.3162 118.951L24.805 119.134C24.8964 118.392 25.1249 117.563 25.5535 116.648L24.1951 116.012ZM23.3162 118.951C22.909 122.255 24.6683 124.434 25.6871 125.303L26.6601 124.161C25.8785 123.495 24.4797 121.773 24.805 119.134L23.3162 118.951ZM22.7333 120.156C22.8304 120.112 23.334 119.931 24.19 119.781L23.9312 118.304C23.0005 118.467 22.3657 118.676 22.117 118.788L22.7333 120.156ZM21.2623 118.96C21.7675 118.501 23.2778 117.439 25.0314 117.063L24.7172 115.596C22.6354 116.042 20.8946 117.268 20.2536 117.85L21.2623 118.96ZM112.316 132.764L107.565 128.72L106.593 129.863L111.344 133.906L112.316 132.764ZM106.461 128.867L103.564 133.081L104.8 133.931L107.697 129.716L106.461 128.867ZM104.182 132.756H101.153V134.256H104.182V132.756ZM101.871 133.29C101.785 133.002 101.574 132.563 101.333 132.065C101.077 131.535 100.749 130.866 100.374 130.048L99.0105 130.674C99.3935 131.509 99.7304 132.196 99.9828 132.718C100.25 133.27 100.391 133.578 100.435 133.723L101.871 133.29ZM100.374 130.048C97.9202 124.7 93.4802 113.029 96.0604 96.2493L94.5778 96.0214C91.9381 113.188 96.4831 125.164 99.0105 130.674L100.374 130.048ZM99.3691 129.684C91.9631 133.219 84.1025 132.733 75.5654 132.733V134.233C83.9462 134.233 92.2281 134.754 100.015 131.038L99.3691 129.684ZM114.496 99.4611C114.239 100.181 113.99 101.392 113.748 102.88C113.503 104.387 113.258 106.236 113.018 108.266C112.54 112.328 112.083 117.144 111.707 121.468L113.202 121.598C113.577 117.28 114.032 112.481 114.508 108.442C114.746 106.421 114.989 104.597 115.229 103.121C115.471 101.625 115.703 100.541 115.909 99.9659L114.496 99.4611ZM111.707 121.468C111.422 124.755 111.265 127.717 111.18 129.858C111.137 130.929 111.112 131.794 111.098 132.393C111.091 132.693 111.086 132.925 111.084 133.083C111.082 133.163 111.082 133.223 111.081 133.264C111.081 133.284 111.081 133.3 111.08 133.31C111.08 133.316 111.08 133.32 111.08 133.322C111.08 133.324 111.08 133.325 111.08 133.326C111.08 133.326 111.08 133.326 111.08 133.326C111.08 133.327 111.08 133.327 111.08 133.327C111.08 133.327 111.08 133.327 111.83 133.335C112.58 133.343 112.58 133.343 112.58 133.343C112.58 133.343 112.58 133.343 112.58 133.343C112.58 133.342 112.58 133.342 112.58 133.342C112.58 133.341 112.58 133.341 112.58 133.339C112.58 133.337 112.58 133.333 112.58 133.329C112.58 133.319 112.581 133.304 112.581 133.284C112.581 133.245 112.582 133.186 112.584 133.109C112.586 132.954 112.591 132.725 112.598 132.429C112.612 131.837 112.636 130.98 112.678 129.918C112.763 127.794 112.919 124.856 113.202 121.598L111.707 121.468ZM91.0427 14.5126C91.6331 15.5607 92.4987 17.5166 93.0316 19.7872C93.5661 22.0644 93.7474 24.5798 93.0558 26.7931L94.4876 27.2405C95.2911 24.669 95.0575 21.8541 94.492 19.4444C93.9248 17.0279 93.0051 14.9402 92.3496 13.7765L91.0427 14.5126ZM93.0558 26.7931C92.7732 27.6976 92.1606 28.1878 91.2473 28.4001C90.2839 28.6241 89.0062 28.5249 87.5548 28.1659C84.6647 27.4509 81.4029 25.787 79.3255 24.3465L78.4708 25.5792C80.6613 27.0981 84.0887 28.8536 87.1946 29.622C88.7412 30.0046 90.2882 30.1631 91.587 29.8612C92.9358 29.5476 94.0226 28.7284 94.4876 27.2405L93.0558 26.7931ZM123.199 102.408C120.262 109.971 116.475 116.442 111.892 121.032L112.954 122.092C117.731 117.307 121.613 110.633 124.598 102.951L123.199 102.408ZM124.301 103.703L124.596 102.955L123.201 102.405L122.906 103.153L124.301 103.703ZM73.0164 65.9405C70.016 66.2888 64.0244 67.6671 57.896 71.104L58.6298 72.4123C64.5629 69.0848 70.3592 67.759 73.1894 67.4305L73.0164 65.9405ZM47.6502 73.1381C55.0695 67.973 64.2826 65.8038 71.9984 63.549C75.8194 62.4324 79.3048 61.2836 81.9249 59.7077C84.5685 58.1177 86.4257 56.0333 86.8075 53.0352L85.3195 52.8457C85.0157 55.2312 83.5613 56.973 81.1518 58.4223C78.7186 59.8858 75.4091 60.9896 71.5776 62.1092C63.9884 64.327 54.4662 66.5653 46.7932 71.9071L47.6502 73.1381ZM34.3158 102C34.3158 89.0185 38.5492 80.964 44.5192 75.6095L43.5176 74.4929C37.1939 80.1646 32.8158 88.6441 32.8158 102H34.3158ZM130.363 66.8449C130.071 72.4639 129.414 78.1289 128.401 83.6281L129.876 83.9C130.902 78.3348 131.566 72.6049 131.861 66.9228L130.363 66.8449ZM127.624 87.4928C127.408 88.4812 127.18 89.4623 126.941 90.4348L128.397 90.7934C128.64 89.8079 128.87 88.8139 129.089 87.8129L127.624 87.4928ZM125.941 94.2015C125.132 97.0417 124.217 99.7887 123.199 102.408L124.598 102.951C125.633 100.285 126.562 97.4937 127.384 94.6127L125.941 94.2015Z"
    fill="#333333"
  ></path>
  <path
    d="M179.92 113.199C179.92 123.423 171.671 131.699 161.511 131.699C151.35 131.699 143.102 123.423 143.102 113.199C143.102 102.975 151.35 94.6992 161.511 94.6992C171.671 94.6992 179.92 102.975 179.92 113.199Z"
    fill="#00c4c4"
    stroke="white"
    stroke-width="3"
  ></path>
  <ellipse
    cx="161.511"
    cy="113.199"
    rx="19.909"
    ry="20"
    stroke="#333333"
    stroke-width="1.5"
  ></ellipse>
  <path
    d="M167.079 106.591C166.288 104.811 164.504 103.716 161.382 103.716C158.111 103.716 155.68 105.547 155.68 108.231C155.68 111.558 157.663 112.232 160.673 113.026C160.863 113.078 161.053 113.129 161.241 113.181L161.616 113.285C164.039 113.971 167.079 114.635 167.347 117.305C167.614 119.975 165.483 122.353 161.164 122.343C158.111 122.336 155.531 120.91 155.068 118.657"
    stroke="#333333"
    stroke-width="1.5"
  ></path>
  <path d="M161.468 100.427V103.713" stroke="#333333" stroke-width="1.5"></path>
  <path d="M161.468 122.57V125.856" stroke="#333333" stroke-width="1.5"></path>
</svg>