<svg
  width="512"
  height="266.11"
  viewBox="0 0 152 79"
  fill="none"
  xmlns="http://www.w3.org/2000/svg"
  aria-hidden="true"
>
  <path
    fill-rule="evenodd"
    clip-rule="evenodd"
    d="M122.044 77.5C139.274 64.9656 142.552 46.296 139.25 34.3351C133.631 13.9724 112.852 2.06041 98.7991 0.714181C88.5296 -0.270903 76.5395 2.09973 69.0779 8.70436C60.8849 15.9536 54.2756 20.3269 44.9666 22.8163C36.0781 25.1954 21.2759 25.4523 12.7656 35.7C7.06694 42.5613 6.46555 58.1651 12.4697 67.2333C16.8396 73.8333 27.6037 77.3032 27.9512 77.5H122.044Z"
    fill="black"
    fill-opacity="0.04"
  ></path>
  <path
    d="M1.21484 77.5H151.505"
    stroke="#333333"
    stroke-width="1.5"
    stroke-miterlimit="10"
  ></path>
  <path
    d="M27.414 77.3217C48.6412 77.0697 83.7144 77.1087 109.989 77.1087C122.001 77.1087 121.52 77.19 125.107 77.1087C128.402 77.0339 133.694 77.1087 133.694 77.1087C133.694 77.1087 138.312 77.1504 139.765 73.7714C141.074 70.7272 141.681 64.6242 139.112 64.0922C138.957 64.0103 138.793 63.9507 138.62 63.9123C137.921 63.661 136.579 63.1963 135.281 62.8447C133.412 62.3384 132.831 59.1807 132.831 59.1807C132.335 57.3126 131.977 55.6167 131.578 54.0218C131.352 53.1188 132.217 52.412 132.603 50.5881C132.733 48.6079 134.496 43.5723 125.458 43.7811C124.708 43.0566 124.228 42.1291 123.247 41.3667C118.037 37.3175 104.602 37.7482 98.8029 39.1991C80.3001 28.8501 61.0624 24.1218 36.4997 32.0907C29.9648 34.2108 24.5854 38.895 21.234 44.0936C21.07 44.348 19.8109 42.3336 17.1699 41.6241C15.6187 41.0022 13.0084 40.533 12.7628 40.792C12.7442 40.8115 11.8342 40.792 10.6252 41.0372C8.82056 39.6706 5.40402 39.6776 3.45915 40.792C6.57368 41.2298 10.5201 41.6241 7.4364 43.8756C7.74686 44.0978 6.82274 48.2884 7.10352 48.3435C14.4273 49.237 4.75571 46.8192 10.9406 43.718C14.8127 48.8691 6.9655 47.9993 7.10352 48.3435C9.99091 51.3918 12.9694 50.0535 13.814 47.9931C14.6249 46.0151 13.3556 43.3671 13.4986 43.5077C15.0055 44.2337 16.2485 44.8411 16.5823 44.997C17.3439 45.4876 19.6508 46.884 19.5072 47.1866C18.1932 49.956 17.4747 52.7561 17.4747 55.2981V61.1716L18.6341 68.1122L12.6733 69.8134L19.0536 71.678L13.1616 74.4516C19.2443 78.3949 25.5752 76.6583 27.414 77.3217Z"
    fill="white"
  ></path>
  <path
    d="M106.161 57.2363C102.359 53.6332 102.582 47.4157 104.243 45.2552C105.903 43.0947 109.135 43.1105 112.067 43.1443C114.46 43.172 117.363 42.2702 119.522 43.9479C124.327 47.6809 117.495 61.5491 116.109 65.1714C115.187 67.5829 111.661 62.4485 106.161 57.2363Z"
    fill="white"
  ></path>
  <path
    d="M107.43 69.4185L107.49 68.6709L107.662 70.132L107.43 69.4185ZM106.055 74.2038L106.374 73.5253L107.523 74.066L106.495 74.8111L106.055 74.2038ZM100.595 71.6327L100.275 72.3112L98.56 71.5034L100.364 70.9192L100.595 71.6327ZM11.5865 69.5805L11.3554 70.294L11.5272 68.8328L11.5865 69.5805ZM12.962 74.3658L12.6651 75.0545L11.1375 74.396L12.6425 73.6873L12.962 74.3658ZM18.4221 71.7946L18.6532 71.0811L20.457 71.6654L18.7416 72.4732L18.4221 71.7946ZM21.2696 44.0385L20.7793 44.606L20.763 44.592L20.7476 44.5771L21.2696 44.0385ZM10.9497 41.1523L11.216 41.8535L10.9497 41.1523ZM6.81012 46.9942L6.06351 47.0654L6.81012 46.9942ZM11.9649 49.7394L11.6649 49.052L11.9649 49.7394ZM13.6289 44.0385L12.9908 44.4326C12.9658 44.3922 12.9448 44.3495 12.9279 44.3051L13.6289 44.0385ZM7.24417 39.9943L7.26808 39.2447L7.26845 39.2447L7.24417 39.9943ZM1.24387 41.9777L1.55772 42.6588L0.690262 41.4717L1.24387 41.9777ZM7.6268 41.6167L7.37213 42.3221L7.36708 42.3202L7.6268 41.6167ZM12.0831 46.0333L12.833 46.0426C12.833 46.0475 12.8329 46.0523 12.8327 46.0572L12.0831 46.0333ZM8.69919 45.9254L9.44881 45.9493L8.69919 45.9254ZM19.5266 47.146L20.035 46.5946L20.0541 46.6123L20.072 46.6312L19.5266 47.146ZM10.9984 43.4918L10.7833 42.7733L10.9984 43.4918ZM8.86739 42.3157L9.33795 42.8997V42.8997L8.86739 42.3157ZM17.2006 56.2004L16.4508 56.22L16.4496 56.1714L16.4546 56.1232L17.2006 56.2004ZM98.8029 39.1991L98.985 39.9267L98.6964 39.9989L98.4368 39.8537L98.8029 39.1991ZM123.247 41.3667L123.707 40.7745L123.247 41.3667ZM139.112 64.0922L138.96 64.8266L138.902 64.8147L138.847 64.7938L139.112 64.0922ZM139.765 73.7714L139.076 73.4751H139.076L139.765 73.7714ZM133.694 77.1087L133.687 77.8586L133.683 77.8586L133.694 77.1087ZM135.281 62.8447L135.477 62.1208H135.477L135.281 62.8447ZM125.107 77.1087L125.09 76.3588H125.09L125.107 77.1087ZM104.242 45.2552L103.648 44.7983L104.242 45.2552ZM106.161 57.2363L105.645 57.7806L106.161 57.2363ZM116.109 65.1714L115.409 64.9035V64.9035L116.109 65.1714ZM119.522 43.9479L119.983 43.3557L119.522 43.9479ZM112.067 43.1443L112.075 42.3944L112.067 43.1443ZM139.475 65.5478C139.782 65.8254 139.806 66.2996 139.528 66.607C139.251 66.9144 138.777 66.9386 138.469 66.6609L139.475 65.5478ZM137.858 69.3708C138.187 69.1183 138.657 69.1798 138.91 69.5081C139.162 69.8365 139.101 70.3074 138.773 70.5599L137.858 69.3708ZM125.834 43.5932L125.313 44.1328L125.834 43.5932ZM131.652 45.2123L132.216 44.7184L131.652 45.2123ZM131.578 54.0218L130.85 54.2039L131.578 54.0218ZM21.4187 44.1673L22.0561 44.5627C21.9404 44.7491 21.7489 44.8756 21.532 44.9087C21.3151 44.9419 21.0945 44.8784 20.9285 44.7349L21.4187 44.1673ZM19.7051 47.3351L20.2505 46.8204C20.4615 47.0439 20.5147 47.3735 20.3848 47.6521L19.7051 47.3351ZM18.9715 68.0557L19.1796 68.7763L18.9715 68.0557ZM107.371 70.1662C104.121 69.9082 96.288 68.2596 90.8876 63.6401L91.8626 62.5002C96.9238 66.8294 104.395 68.4253 107.49 68.6709L107.371 70.1662ZM82.7729 72.7921C85.0977 74.0032 89.0634 75.5039 93.3432 76.0393C97.6308 76.5756 102.12 76.1306 105.615 73.5967L106.495 74.8111C102.566 77.6599 97.6319 78.0874 93.157 77.5277C88.6743 76.9669 84.5379 75.4029 82.0799 74.1224L82.7729 72.7921ZM105.735 74.8824L100.275 72.3112L100.914 70.9541L106.374 73.5253L105.735 74.8824ZM100.364 70.9192L107.199 68.705L107.662 70.132L100.826 72.3462L100.364 70.9192ZM38.0892 74.1224C35.7462 75.343 32.8619 77.1262 28.8371 77.807C24.7871 78.4921 19.6404 78.0616 12.6651 75.0545L13.2589 73.6771C20.0256 76.5943 24.8779 76.9554 28.587 76.328C32.3214 75.6964 34.9564 74.0631 37.3961 72.7921L38.0892 74.1224ZM12.6425 73.6873L18.1026 71.1161L18.7416 72.4732L13.2815 75.0443L12.6425 73.6873ZM18.191 72.5081L11.3554 70.294L11.8176 68.867L18.6532 71.0811L18.191 72.5081ZM20.7476 44.5771C20.1122 43.9614 18.6015 42.9187 16.7724 42.2163C14.9374 41.5116 12.9261 41.2041 11.216 41.8535L10.6835 40.4512C12.892 39.6125 15.3234 40.0531 17.3102 40.816C19.3027 41.5812 20.9926 42.7257 21.7915 43.4999L20.7476 44.5771ZM7.55673 46.923C7.60374 47.4159 8.03038 48.2344 8.79997 48.7891C9.5224 49.3099 10.4968 49.5618 11.6649 49.052L12.2648 50.4268C10.5544 51.1732 9.02252 50.7987 7.92282 50.0059C6.87029 49.2472 6.15884 48.065 6.06351 47.0654L7.55673 46.923ZM11.6649 49.052C12.8176 48.5491 13.2637 47.6421 13.3702 46.7003C13.4825 45.7063 13.199 44.7697 12.9908 44.4326L14.267 43.6444C14.6697 44.2964 15.0068 45.5764 14.8607 46.8687C14.7087 48.2132 14.0174 49.6621 12.2648 50.4268L11.6649 49.052ZM7.22026 40.7439C4.45113 40.6556 2.77711 41.4118 1.79745 42.4837L0.690262 41.4717C2.05046 39.9835 4.20543 39.147 7.26808 39.2447L7.22026 40.7439ZM0.930008 41.2965C1.54688 41.0123 2.59573 40.6715 3.81982 40.52C5.0448 40.3684 6.49652 40.3999 7.88654 40.9131L7.36708 42.3202C6.27005 41.9153 5.07599 41.8759 4.00409 42.0086C2.93132 42.1414 2.03223 42.4402 1.55772 42.6588L0.930008 41.2965ZM12.8327 46.0572C12.8139 46.6468 12.6191 47.2603 12.2543 47.7399C11.8812 48.2304 11.2971 48.6136 10.5499 48.5897L10.5977 47.0905C10.7562 47.0955 10.9123 47.0265 11.0603 46.8319C11.2166 46.6265 11.3235 46.3221 11.3335 46.0094L12.8327 46.0572ZM10.5499 48.5897C9.98631 48.5718 9.32713 48.4105 8.80016 47.9716C8.24385 47.5083 7.92072 46.8061 7.94957 45.9015L9.44881 45.9493C9.43314 46.4403 9.59439 46.681 9.76006 46.819C9.95505 46.9813 10.2554 47.0796 10.5977 47.0905L10.5499 48.5897ZM13.2856 42.6706C14.3435 42.888 15.6415 43.5191 16.8327 44.2394C18.0384 44.9684 19.2139 45.8374 20.035 46.5946L19.0181 47.6973C18.2844 47.0208 17.1934 46.2104 16.0566 45.523C14.9053 44.8269 13.7848 44.3045 12.9838 44.14L13.2856 42.6706ZM12.9279 44.3051C12.9445 44.3488 12.9606 44.3772 12.9621 44.3799C12.9663 44.3874 12.9675 44.389 12.964 44.3835C12.957 44.3726 12.94 44.3476 12.909 44.3062C12.8472 44.224 12.7414 44.0926 12.5731 43.9024L13.6963 42.9082C13.8833 43.1195 14.0163 43.2828 14.1086 43.4058C14.1546 43.467 14.1935 43.5223 14.2252 43.5715C14.2468 43.6051 14.2956 43.6817 14.3299 43.7719L12.9279 44.3051ZM7.94957 45.9015C7.99673 44.422 9.2805 43.2231 10.7833 42.7733L11.2135 44.2103C10.0726 44.5518 9.46802 45.3465 9.44881 45.9493L7.94957 45.9015ZM10.7833 42.7733C11.5418 42.5463 12.4001 42.4887 13.2856 42.6706L12.9838 44.14C12.3482 44.0094 11.7413 44.0523 11.2135 44.2103L10.7833 42.7733ZM11.3331 46.0239C11.3354 45.8459 11.2986 45.4877 11.1647 45.0953C11.0316 44.7052 10.8194 44.3301 10.5062 44.0577L11.4906 42.9259C12.0609 43.4219 12.3944 44.054 12.5844 44.6109C12.7736 45.1653 12.8374 45.6937 12.833 46.0426L11.3331 46.0239ZM11.216 41.8535C10.431 42.1515 9.81775 42.5131 9.33795 42.8997L8.39682 41.7317C9.00922 41.2383 9.76279 40.8008 10.6835 40.4512L11.216 41.8535ZM9.33795 42.8997C7.63568 44.2714 7.47696 46.0866 7.55673 46.923L6.06351 47.0654C5.95413 45.9187 6.17265 43.5239 8.39682 41.7317L9.33795 42.8997ZM7.88147 40.9112C8.10997 40.9937 8.62541 41.2448 9.28871 41.6953L8.44606 42.9362C7.84558 42.5284 7.44412 42.3481 7.37213 42.3221L7.88147 40.9112ZM7.26845 39.2447C8.01187 39.2687 9.80479 39.5516 11.3474 40.5164L10.552 41.7882C9.29407 41.0014 7.77994 40.762 7.21989 40.7439L7.26845 39.2447ZM109.989 77.8587C96.8529 77.8587 76.033 77.9191 58.496 77.9795C49.7277 78.0097 41.7805 78.0399 36.0253 78.0626C33.1478 78.0739 30.8182 78.0834 29.208 78.09C28.403 78.0933 27.7777 78.0959 27.3538 78.0976C27.1418 78.0985 26.9801 78.0992 26.8715 78.0997C26.8172 78.0999 26.7761 78.1001 26.7486 78.1002C26.7348 78.1002 26.7245 78.1003 26.7176 78.1003C26.7141 78.1003 26.7115 78.1003 26.7098 78.1003C26.7089 78.1004 26.7083 78.1004 26.7078 78.1004C26.7074 78.1004 26.7072 78.1004 26.704 77.3504C26.7008 76.6004 26.701 76.6004 26.7015 76.6004C26.7019 76.6004 26.7025 76.6004 26.7034 76.6004C26.7051 76.6004 26.7077 76.6003 26.7112 76.6003C26.7181 76.6003 26.7285 76.6003 26.7422 76.6002C26.7697 76.6001 26.8108 76.5999 26.8652 76.5997C26.9739 76.5992 27.1355 76.5985 27.3475 76.5977C27.7715 76.5959 28.3968 76.5933 29.2019 76.59C30.8121 76.5834 33.1418 76.5739 36.0194 76.5626C41.7748 76.5399 49.7223 76.5097 58.4909 76.4795C76.0276 76.4191 96.85 76.3587 109.989 76.3587V77.8587ZM36.2682 31.3773C61.0749 23.3292 80.5301 28.1193 99.1691 38.5446L98.4368 39.8537C80.0702 29.5808 61.0499 24.9143 36.7311 32.8041L36.2682 31.3773ZM98.6209 38.4716C101.606 37.7247 106.489 37.2515 111.28 37.4711C113.68 37.5812 116.08 37.866 118.222 38.3869C120.355 38.9055 122.287 39.6706 123.707 40.7745L122.786 41.9588C121.602 41.0381 119.9 40.3386 117.868 39.8445C115.845 39.3526 113.546 39.0766 111.212 38.9695C106.532 38.755 101.799 39.2226 98.985 39.9267L98.6209 38.4716ZM139.264 63.3578C140.237 63.5594 140.837 64.2881 141.176 65.1171C141.511 65.9376 141.639 66.954 141.643 67.9875C141.649 70.0577 141.151 72.4466 140.454 74.0676L139.076 73.4751C139.688 72.052 140.148 69.8673 140.143 67.9919C140.14 67.0526 140.02 66.2533 139.787 65.6847C139.558 65.1247 139.27 64.891 138.96 64.8266L139.264 63.3578ZM140.454 74.0676C139.604 76.0454 137.842 76.9812 136.406 77.4239C135.68 77.6476 135.008 77.7556 134.518 77.8081C134.272 77.8345 134.07 77.8471 133.927 77.8532C133.855 77.8562 133.798 77.8576 133.757 77.8582C133.737 77.8585 133.721 77.8586 133.709 77.8587C133.703 77.8587 133.699 77.8587 133.695 77.8587C133.693 77.8587 133.691 77.8587 133.69 77.8587C133.689 77.8586 133.689 77.8586 133.688 77.8586C133.688 77.8586 133.688 77.8586 133.688 77.8586C133.687 77.8586 133.687 77.8586 133.694 77.1087C133.701 76.3587 133.7 76.3587 133.7 76.3587C133.7 76.3587 133.7 76.3587 133.7 76.3587C133.7 76.3587 133.699 76.3587 133.699 76.3587C133.699 76.3587 133.699 76.3587 133.7 76.3587C133.7 76.3587 133.702 76.3587 133.705 76.3587C133.711 76.3587 133.721 76.3586 133.735 76.3584C133.763 76.358 133.806 76.3569 133.863 76.3545C133.978 76.3497 134.148 76.3392 134.358 76.3167C134.78 76.2714 135.353 76.1787 135.964 75.9904C137.2 75.6093 138.474 74.8764 139.076 73.4751L140.454 74.0676ZM132.831 59.1807C133.569 59.045 133.569 59.0448 133.569 59.0446C133.569 59.0446 133.569 59.0444 133.569 59.0444C133.569 59.0442 133.569 59.0441 133.569 59.044C133.569 59.0439 133.569 59.0439 133.569 59.0441C133.569 59.0446 133.569 59.0457 133.57 59.0476C133.57 59.0514 133.572 59.0581 133.573 59.0674C133.577 59.086 133.583 59.1152 133.592 59.1537C133.609 59.2307 133.636 59.3441 133.674 59.483C133.751 59.7625 133.871 60.1356 134.041 60.5183C134.406 61.3393 134.895 61.963 135.477 62.1208L135.085 63.5686C133.799 63.2201 133.063 62.0118 132.67 61.1273C132.461 60.6573 132.319 60.2094 132.228 59.881C132.183 59.7159 132.15 59.5786 132.128 59.481C132.117 59.4321 132.109 59.393 132.103 59.3651C132.1 59.3512 132.098 59.34 132.097 59.3318C132.096 59.3277 132.095 59.3244 132.095 59.3218C132.095 59.3205 132.094 59.3194 132.094 59.3185C132.094 59.318 132.094 59.3176 132.094 59.3172C132.094 59.3171 132.094 59.3168 132.094 59.3167C132.094 59.3165 132.094 59.3163 132.831 59.1807ZM135.477 62.1208C136.804 62.4802 138.168 62.9528 138.874 63.2065L138.367 64.6181C137.674 64.3691 136.354 63.9123 135.085 63.5686L135.477 62.1208ZM138.874 63.2065C139.03 63.2626 139.155 63.3084 139.241 63.3402C139.285 63.3562 139.318 63.3686 139.341 63.3772C139.352 63.3814 139.361 63.3847 139.367 63.387C139.37 63.3881 139.372 63.389 139.374 63.3896C139.375 63.3899 139.376 63.3902 139.376 63.3903C139.376 63.3904 139.376 63.3905 139.377 63.3906C139.377 63.3906 139.377 63.3906 139.377 63.3906C139.377 63.3906 139.377 63.3906 139.377 63.3906C139.377 63.3906 139.377 63.3906 139.377 63.3907C139.377 63.3907 139.377 63.3907 139.112 64.0922C138.847 64.7938 138.847 64.7938 138.847 64.7938C138.847 64.7938 138.847 64.7938 138.847 64.7938C138.847 64.7938 138.847 64.7938 138.847 64.7938C138.847 64.7938 138.847 64.7938 138.847 64.7938C138.847 64.7938 138.846 64.7938 138.846 64.7937C138.846 64.7936 138.846 64.7934 138.845 64.7932C138.844 64.7928 138.842 64.792 138.839 64.7911C138.834 64.7891 138.826 64.7861 138.816 64.7822C138.794 64.7743 138.763 64.7625 138.722 64.7473C138.639 64.7168 138.518 64.6726 138.367 64.6181L138.874 63.2065ZM133.694 77.1087C133.683 77.8586 133.683 77.8586 133.683 77.8586C133.683 77.8586 133.683 77.8586 133.683 77.8586C133.683 77.8586 133.683 77.8586 133.682 77.8586C133.682 77.8586 133.681 77.8585 133.68 77.8585C133.677 77.8585 133.673 77.8584 133.668 77.8584C133.658 77.8582 133.643 77.858 133.624 77.8578C133.584 77.8572 133.526 77.8565 133.451 77.8555C133.3 77.8536 133.081 77.851 132.808 77.8481C132.261 77.8423 131.498 77.8353 130.632 77.8306C128.898 77.8213 126.76 77.8214 125.124 77.8585L125.09 76.3588C126.749 76.3212 128.904 76.3213 130.64 76.3306C131.509 76.3353 132.275 76.3423 132.824 76.3482C133.098 76.3511 133.318 76.3537 133.469 76.3557C133.545 76.3566 133.604 76.3574 133.644 76.3579C133.664 76.3582 133.679 76.3584 133.689 76.3585C133.694 76.3586 133.698 76.3586 133.7 76.3587C133.702 76.3587 133.703 76.3587 133.703 76.3587C133.704 76.3587 133.704 76.3587 133.704 76.3587C133.704 76.3587 133.704 76.3587 133.704 76.3587C133.704 76.3587 133.704 76.3587 133.694 77.1087ZM125.124 77.8585C121.527 77.94 121.978 77.8587 109.989 77.8587V76.3587C122.025 76.3587 121.513 76.4399 125.09 76.3588L125.124 77.8585ZM138.76 64.7546C138.668 64.7059 138.568 64.6689 138.457 64.6443L138.784 63.1803C139.018 63.2325 139.246 63.3146 139.464 63.4299L138.76 64.7546ZM138.457 64.6443C137.964 64.5344 137.267 64.6757 136.522 65.14C135.79 65.5954 135.097 66.3134 134.635 67.1936L133.306 66.4963C133.894 65.3778 134.773 64.4618 135.729 63.8667C136.67 63.2806 137.773 62.9549 138.784 63.1803L138.457 64.6443ZM104.837 45.7122C104.168 46.5831 103.698 48.4581 103.9 50.6352C104.1 52.7772 104.94 55.0451 106.677 56.6919L105.645 57.7806C103.581 55.8243 102.631 53.1819 102.407 50.7743C102.186 48.4018 102.657 46.0878 103.648 44.7983L104.837 45.7122ZM106.677 56.6919C108.067 58.0089 109.329 59.3187 110.45 60.4975C111.577 61.6835 112.546 62.7214 113.374 63.5244C114.227 64.3516 114.83 64.8267 115.223 64.9878C115.406 65.0625 115.419 65.0176 115.358 65.0428C115.289 65.071 115.334 65.1 115.409 64.9035L116.81 65.4394C116.654 65.8457 116.387 66.2418 115.927 66.4305C115.475 66.6161 115.019 66.525 114.655 66.3759C113.956 66.0898 113.161 65.4076 112.329 64.6011C111.473 63.7704 110.472 62.6982 109.362 61.5309C108.246 60.3564 107.005 59.0698 105.645 57.7806L106.677 56.6919ZM115.409 64.9035C116.133 63.0096 118.147 58.7437 119.417 54.391C120.05 52.2246 120.474 50.1094 120.461 48.3349C120.448 46.547 119.997 45.2661 119.062 44.5402L119.983 43.3557C121.451 44.4962 121.947 46.3487 121.961 48.3242C121.975 50.3131 121.505 52.5912 120.857 54.8113C119.567 59.2315 117.471 63.711 116.81 65.4394L115.409 64.9035ZM119.062 44.5402C118.177 43.8524 117.113 43.6657 115.889 43.6773C115.276 43.6831 114.651 43.7379 114.001 43.793C113.363 43.847 112.698 43.9017 112.058 43.8943L112.075 42.3944C112.632 42.4008 113.227 42.3532 113.874 42.2983C114.509 42.2445 115.194 42.1838 115.875 42.1774C117.241 42.1644 118.708 42.3657 119.983 43.3557L119.062 44.5402ZM112.058 43.8943C110.578 43.8772 109.113 43.8682 107.817 44.1138C106.532 44.3574 105.512 44.8341 104.837 45.7122L103.648 44.7983C104.633 43.5158 106.06 42.9202 107.538 42.64C109.007 42.3618 110.624 42.3776 112.075 42.3944L112.058 43.8943ZM138.469 66.6609C138.334 66.5387 138.323 66.594 138.408 66.582C138.47 66.5732 138.441 66.5459 138.344 66.6702C138.141 66.9295 137.942 67.4702 137.853 68.1108C137.762 68.7617 137.816 69.2863 137.917 69.5101C137.962 69.6093 137.946 69.5018 137.791 69.4707C137.658 69.4441 137.659 69.5242 137.858 69.3708L138.773 70.5599C138.431 70.8225 137.986 71.0398 137.496 70.9413C136.983 70.8384 136.696 70.4501 136.551 70.1295C136.272 69.5137 136.264 68.6431 136.367 67.9034C136.472 67.1534 136.723 66.3081 137.162 65.7464C137.386 65.4602 137.726 65.1636 138.197 65.0968C138.691 65.0268 139.129 65.2354 139.475 65.5478L138.469 66.6609ZM123.707 40.7745C124.706 41.5514 125.583 42.3084 126.355 43.0537L125.313 44.1328C124.584 43.4289 123.749 42.7068 122.786 41.9588L123.707 40.7745ZM125.761 42.8468C126.5 42.7747 127.676 42.7773 128.867 43.0132C130.04 43.2456 131.351 43.729 132.216 44.7184L131.088 45.7061C130.543 45.0838 129.621 44.6917 128.575 44.4846C127.547 44.2809 126.52 44.2799 125.907 44.3397L125.761 42.8468ZM126.355 43.0537C130.149 46.7166 131.354 50.039 132.306 53.8397L130.85 54.2039C129.937 50.5547 128.831 47.5294 125.313 44.1328L126.355 43.0537ZM132.216 44.7184C133.292 45.9474 133.564 47.7845 133.469 49.4975C133.373 51.2388 132.89 53.0351 132.253 54.3491L130.903 53.6945C131.451 52.5649 131.886 50.9638 131.972 49.4149C132.059 47.8377 131.775 46.4918 131.088 45.7061L132.216 44.7184ZM21.7598 43.4709L21.909 43.5998L20.9285 44.7349L20.7793 44.606L21.7598 43.4709ZM16.4546 56.1232C16.7693 53.0839 17.6456 49.9771 19.0254 47.0182L20.3848 47.6521C19.0709 50.4697 18.243 53.4151 17.9466 56.2777L16.4546 56.1232ZM20.072 46.6312L20.2505 46.8204L19.1597 47.8499L18.9811 47.6608L20.072 46.6312ZM11.5272 68.8328C12.8634 68.7268 15.9811 68.1384 18.7635 67.3352L19.1796 68.7763C16.3395 69.5962 13.1167 70.2114 11.6459 70.3281L11.5272 68.8328ZM18.7635 67.3352C22.2454 66.3299 25.499 64.9017 28.3065 62.5002L29.2815 63.6401C26.256 66.2281 22.7832 67.7359 19.1796 68.7763L18.7635 67.3352ZM17.9503 56.1808C18.0843 61.3189 18.3455 63.3269 19.6903 67.8416L18.2528 68.2698C16.8635 63.6058 16.5876 61.4637 16.4508 56.22L17.9503 56.1808ZM71.9449 33.217C70.9413 32.893 68.9665 32.4166 66.6827 32.1421C64.3937 31.8669 61.8558 31.8022 59.7002 32.262L59.3873 30.795C61.7734 30.286 64.4974 30.3685 66.8618 30.6528C69.2314 30.9377 71.3015 31.4331 72.4056 31.7895L71.9449 33.217ZM30.8086 33.8458C31.5456 33.4095 32.3075 33.0045 33.0937 32.6343L33.7328 33.9913C32.9901 34.3411 32.2698 34.7238 31.5728 35.1366L30.8086 33.8458ZM20.7814 43.772C22.682 40.7078 25.1586 37.9023 28.1464 35.6362L29.0529 36.8313C26.2212 38.979 23.8664 41.6441 22.0561 44.5627L20.7814 43.772ZM132.306 53.8397C132.492 54.5848 132.67 55.3519 132.854 56.1373L131.394 56.4798C131.208 55.688 131.034 54.9353 130.85 54.2039L132.306 53.8397Z"
    fill="#333333"
  ></path>
  <path
    d="M110.588 74.4007H139.527C139.525 74.4007 139.527 76.6855 133.558 76.6855H129.094H113.583C105.066 76.6855 104.634 76.882 102.01 76.6855C96.8947 76.3025 86.6017 76.6859 86.6017 76.6859C86.6017 76.6859 45.0244 77.9981 25.174 77.2931C17.9539 77.0367 13.0962 74.2423 13.4605 74.2738C18.1302 74.6773 110.588 74.4007 110.588 74.4007Z"
    fill="#EEEEEE"
  ></path>
  <path
    d="M108.736 23.5508H116.408L108.736 32.2692H118.152"
    stroke="#333333"
    stroke-width="1.5"
    stroke-linecap="round"
  ></path>
  <path
    d="M119.994 17.6289H126.48L119.994 25H127.955"
    stroke="#333333"
    stroke-width="1.5"
    stroke-linecap="round"
  ></path>
  <path
    d="M130.461 11.4961H135.86L130.461 17.6312H137.087"
    stroke="#333333"
    stroke-width="1.5"
    stroke-linecap="round"
  ></path>
</svg>
