<svg
  width="88"
  height="102"
  viewBox="0 0 88 102"
  fill="none"
  xmlns="http://www.w3.org/2000/svg"
  aria-hidden="true"
>
  <path
    d="M42.0313 22.2397C44.2576 22.2397 46.0625 24.0446 46.0625 26.271L46.0625 74.2085C46.0625 76.4349 44.2576 78.2397 42.0312 78.2397L12.5313 78.2397C10.3049 78.2397 8.50001 76.4349 8.50001 74.2085L8.50001 26.271C8.50001 24.0446 10.3049 22.2397 12.5313 22.2397L42.0313 22.2397Z"
    fill="#5AD2FF"
    stroke="white"
    stroke-width="3"
  ></path>
  <path
    d="M47.5625 26.271C47.5625 23.2162 45.0861 20.7397 42.0313 20.7397L12.5313 20.7397C9.47643 20.7397 7.00001 23.2162 7.00001 26.271L7.00001 74.2085C7.00001 77.2633 9.47643 79.7397 12.5313 79.7397L42.0312 79.7397C45.0861 79.7397 47.5625 77.2633 47.5625 74.2085L47.5625 26.271Z"
    stroke="#333333"
    stroke-width="1.5"
  ></path>
  <path
    d="M17.1317 27.916L17.1317 51.7959"
    stroke="#333333"
    stroke-width="1.5"
  ></path>
  <path
    d="M17.1317 55.7511L17.1317 60.9714"
    stroke="#333333"
    stroke-width="1.5"
  ></path>
  <path
    d="M23.2922 27.916L23.2922 35.6815"
    stroke="#333333"
    stroke-width="1.5"
  ></path>
  <path
    d="M23.2922 40.1968L23.2922 47.9622"
    stroke="#333333"
    stroke-width="1.5"
  ></path>
  <path
    d="M23.2922 52.4771L23.2922 60.2425"
    stroke="#333333"
    stroke-width="1.5"
  ></path>
  <path
    d="M23.2922 64.7573L23.2922 72.5228"
    stroke="#333333"
    stroke-width="1.5"
  ></path>
  <path
    fill-rule="evenodd"
    clip-rule="evenodd"
    d="M37.9531 29.0908L37.9531 35.6321C37.9531 36.337 37.3817 36.9084 36.6768 36.9084L32.8477 36.9084C32.1428 36.9084 31.5714 36.337 31.5714 35.6321L31.5714 29.0908C31.5714 28.3859 32.1428 27.8145 32.8477 27.8145L36.6768 27.8145C37.3817 27.8145 37.9531 28.3859 37.9531 29.0908Z"
    stroke="#333333"
    stroke-width="1.5"
  ></path>
  <path
    d="M79.4998 62.0002C79.4998 71.8288 71.6482 79.7606 62.0067 79.7606C52.3653 79.7606 44.5137 71.8288 44.5137 62.0002C44.5137 52.1715 52.3653 44.2397 62.0067 44.2397C71.6482 44.2397 79.4998 52.1715 79.4998 62.0002Z"
    fill="#5AD2FF"
    stroke="white"
    stroke-width="3"
  ></path>
  <path
    d="M66.8494 56.6996C66.1502 55.1113 64.5733 54.1338 61.8127 54.1338C58.921 54.1338 56.7724 55.768 56.7724 58.1634C56.7724 61.1323 58.5249 61.7338 61.1865 62.4423C61.3543 62.4883 61.5219 62.5341 61.6884 62.5804L62.0198 62.6736C64.1619 63.2854 66.8494 63.8779 67.086 66.2605C67.3225 68.643 65.4387 70.7657 61.6206 70.757C58.921 70.7507 56.6404 69.4776 56.2314 67.4671"
    stroke="#333333"
    stroke-width="1.5"
  ></path>
  <path d="M61.8982 51.1968V54.1292" stroke="#333333" stroke-width="1.5"></path>
  <path d="M61.8982 70.9551V73.8875" stroke="#333333" stroke-width="1.5"></path>
  <ellipse
    cx="62.0067"
    cy="62.0002"
    rx="18.9931"
    ry="19.2604"
    stroke="#333333"
    stroke-width="1.5"
  ></ellipse>
</svg>
